#N canvas 145 53 753 636 10;
#X obj 257 414 sendOSC;
#X obj 256 505 dumpOSC 8000;
#X obj 256 534 send rcvOsc;
#X obj 256 573 receive rcvOsc;
#X obj 256 603 print osc;
#X msg 269 364 connect picrouter.local 8080;
#X msg 282 391 disconnect;
#X obj 257 311 receive sndOsc;
#X obj 181 79 popup 124 25 #ffffff LED1 LED1 LED2;
#X msg 491 135 0;
#X obj 518 163 send ledIndex;
#X obj 181 51 receive ledIndex;
#X msg 499 81 options LED1 LED2;
#X msg 622 135 0;
#X obj 649 163 send ledState;
#X msg 630 81 options off on;
#X obj 334 78 popup 124 25 #ffffff off off on;
#X obj 334 50 receive ledState;
#X obj 257 187 pack 0 s;
#X obj 257 117 t b s;
#X obj 257 162 int;
#X obj 257 240 route list;
#X obj 257 267 send sndOsc;
#X symbolatom 17 338 20 0 0 0 - - -;
#X obj 17 408 route list;
#X obj 17 381 list prepend /sys/remote/ip/set;
#X obj 17 437 send sndOsc;
#X text 47 355 Enter your machine's IP;
#X text 183 8 Send Test;
#X text 181 22 (Onboard LED On/Off);
#X text 256 467 Receive Test;
#X text 255 482 (Onboard Sw On/Off);
#X msg 538 136 name LED1;
#X obj 499 107 t b a b;
#X msg 669 136 name off;
#X obj 630 107 t b a b;
#X obj 257 213 list prepend send /std/onboard/led;
#X obj 353 336 delay 1000;
#X obj 353 310 loadbang;
#X obj 181 117 route bang;
#X obj 499 51 loadbang;
#X msg 17 312 set 224.0.0.1;
#X obj 17 287 loadbang;
#X connect 1 0 2 0;
#X connect 3 0 4 0;
#X connect 5 0 0 0;
#X connect 6 0 0 0;
#X connect 7 0 0 0;
#X connect 8 0 39 0;
#X connect 9 0 10 0;
#X connect 11 0 8 0;
#X connect 12 0 33 0;
#X connect 13 0 14 0;
#X connect 15 0 35 0;
#X connect 16 1 19 0;
#X connect 17 0 16 0;
#X connect 18 0 36 0;
#X connect 19 0 20 0;
#X connect 19 1 18 1;
#X connect 20 0 18 0;
#X connect 21 0 22 0;
#X connect 23 0 25 0;
#X connect 24 0 26 0;
#X connect 25 0 24 0;
#X connect 32 0 10 0;
#X connect 33 0 9 0;
#X connect 33 1 10 0;
#X connect 33 2 32 0;
#X connect 34 0 14 0;
#X connect 35 0 13 0;
#X connect 35 1 14 0;
#X connect 35 2 34 0;
#X connect 36 0 21 0;
#X connect 37 0 5 0;
#X connect 38 0 37 0;
#X connect 39 1 20 1;
#X connect 40 0 12 0;
#X connect 40 0 15 0;
#X connect 41 0 23 0;
#X connect 42 0 41 0;
