#N canvas 33 22 753 504 10;
#X obj 249 421 sendOSC;
#X obj 432 452 dumpOSC 8000;
#X obj 89 553 send rcvOsc;
#X obj 256 573 receive rcvOsc;
#X obj 256 603 print osc;
#X msg 282 391 disconnect;
#X obj 257 311 receive sndOsc;
#X obj 181 79 popup 124 25 #ffffff LED1 LED1 LED2;
#X msg 491 135 0;
#X obj 518 163 send ledIndex;
#X obj 181 51 receive ledIndex;
#X msg 499 81 options LED1 LED2;
#X msg 622 135 0;
#X obj 649 163 send ledState;
#X msg 630 81 options off on;
#X obj 334 78 popup 124 25 #ffffff off off on;
#X obj 334 50 receive ledState;
#X obj 257 187 pack 0 s;
#X obj 257 117 t b s;
#X obj 257 162 int;
#X obj 257 240 route list;
#X obj 257 267 send sndOsc;
#X symbolatom 17 338 20 0 0 0 - - -;
#X obj 17 408 route list;
#X obj 17 381 list prepend /sys/remote/ip/set;
#X obj 17 437 send sndOsc;
#X text 47 355 Enter your machine's IP;
#X text 183 8 Send Test;
#X text 181 22 (Onboard LED On/Off);
#X text 256 467 Receive Test;
#X text 255 482 (Onboard Sw On/Off);
#X msg 538 136 name LED1;
#X obj 499 107 t b a b;
#X msg 669 136 name off;
#X obj 630 107 t b a b;
#X obj 257 213 list prepend send /std/onboard/led;
#X obj 353 336 delay 1000;
#X obj 353 310 loadbang;
#X obj 181 117 route bang;
#X obj 499 51 loadbang;
#X msg 17 312 set 224.0.0.1;
#X obj 17 287 loadbang;
#X msg 492 274 connect 10.0.1.3 8080;
#X obj 432 485 print test;
#X msg 474 312 send /sys/remote/ip/get;
#X msg 269 364 connect 10.0.1.7 8080;
#X msg 474 347 send /sys/remote/ip/set 10.0.1.2;
#X msg 46 226 send /std/adc/enable/get 0;
#X msg 74 251 send /std/adc/dio/get 0;
#X msg 491 373 send /std/pwm/enable/get 0;
#X msg 481 411 send /std/pwm/enable/set 0 on;
#X msg 540 444 send /std/pwm/duty/get 0;
#X floatatom 558 554 5 0 0 0 - - -;
#X obj 580 206 prepend send /std/pwm;
#X msg 558 579 send /std/pwm/duty/set 0 \$1;
#X obj 58 110 sendOSC;
#X msg 79 86 disconnect;
#X msg 74 61 connect 10.0.1.11 8080;
#X msg 448 245 send /std/onboard/led 0 on;
#X obj 502 486 route /std/adc;
#X msg -3 205 send /std/adc/enable/set 0 on;
#X obj 559 533 expr ($f1/ 1024) * 100;
#X obj 502 509 unpack f f;
#X connect 1 0 43 0;
#X connect 1 0 59 0;
#X connect 3 0 4 0;
#X connect 5 0 0 0;
#X connect 6 0 0 0;
#X connect 7 0 38 0;
#X connect 8 0 9 0;
#X connect 10 0 7 0;
#X connect 11 0 32 0;
#X connect 12 0 13 0;
#X connect 14 0 34 0;
#X connect 15 1 18 0;
#X connect 16 0 15 0;
#X connect 17 0 35 0;
#X connect 18 0 19 0;
#X connect 18 1 17 1;
#X connect 19 0 17 0;
#X connect 20 0 55 0;
#X connect 22 0 24 0;
#X connect 23 0 25 0;
#X connect 24 0 23 0;
#X connect 31 0 9 0;
#X connect 32 0 8 0;
#X connect 32 1 9 0;
#X connect 32 2 31 0;
#X connect 33 0 13 0;
#X connect 34 0 12 0;
#X connect 34 1 13 0;
#X connect 34 2 33 0;
#X connect 35 0 20 0;
#X connect 36 0 45 0;
#X connect 37 0 36 0;
#X connect 38 1 19 1;
#X connect 39 0 11 0;
#X connect 39 0 14 0;
#X connect 40 0 22 0;
#X connect 41 0 40 0;
#X connect 44 0 0 0;
#X connect 45 0 0 0;
#X connect 46 0 0 0;
#X connect 47 0 0 0;
#X connect 48 0 0 0;
#X connect 49 0 0 0;
#X connect 50 0 0 0;
#X connect 51 0 0 0;
#X connect 52 0 54 0;
#X connect 54 0 0 0;
#X connect 56 0 55 0;
#X connect 57 0 55 0;
#X connect 58 0 0 0;
#X connect 59 0 62 0;
#X connect 60 0 0 0;
#X connect 61 0 52 0;
#X connect 62 1 61 0;
