#N canvas 596 165 907 479 10;
#X obj 53 211 popup 124 25 #ffffff b0 b0 b1 b2 b3 b4 b5 b6 b7 b8 b9
b10 b11 b12 b13 d0 d2 d3 d4 c13 c14 f0 f1;
#X obj 206 210 popup 124 25 #ffffff in in out;
#X obj 329 331 t b s;
#N canvas 317 94 450 300 OSC_Comm 0;
#X obj 61 75 dumpOSC 8000;
#X obj 61 104 send rcvOsc;
#X obj 170 139 sendOSC;
#X msg 182 89 connect picrouter.local 8080;
#X msg 195 116 disconnect;
#X obj 170 36 receive sndOsc;
#X obj 266 61 delay 1000;
#X obj 266 35 loadbang;
#X obj 58 149 receive rcvOsc;
#X obj 115 233 outlet;
#X obj 58 179 route /sys/error;
#X obj 57 232 outlet;
#X obj 61 37 receive rcvPort;
#X connect 0 0 1 0;
#X connect 3 0 2 0;
#X connect 4 0 2 0;
#X connect 5 0 2 0;
#X connect 6 0 3 0;
#X connect 7 0 6 0;
#X connect 8 0 10 0;
#X connect 10 0 9 0;
#X connect 10 1 11 0;
#X restore 24 39 pd OSC_Comm;
#X text 23 10 Digital Port Control;
#X obj 206 182 receive ioType;
#N canvas 518 400 595 496 initPopup 0;
#X msg 402 94 0;
#X obj 410 66 t b a b;
#X obj 410 15 loadbang;
#X msg 27 44 options b0 b1 b2 b3 b4 b5 b6 b7 b8 b9 b10 b11 b12 b13
d0 d2 d3 d4 c13 c14 f0 f1;
#X msg 19 112 0;
#X msg 27 17 loadbang;
#X msg 410 40 options in out;
#X msg 449 95 name in;
#X obj 429 122 send ioType;
#X msg 403 241 0;
#X obj 411 213 t b a b;
#X obj 411 162 loadbang;
#X msg 411 187 options low high;
#X msg 450 242 name low;
#X obj 430 269 send ioState;
#X obj 27 83 t b a b;
#X msg 66 113 name b0;
#X obj 46 145 send portName;
#X connect 0 0 8 0;
#X connect 1 0 0 0;
#X connect 1 1 8 0;
#X connect 1 2 7 0;
#X connect 2 0 6 0;
#X connect 3 0 15 0;
#X connect 4 0 17 0;
#X connect 5 0 3 0;
#X connect 6 0 1 0;
#X connect 7 0 8 0;
#X connect 9 0 14 0;
#X connect 10 0 9 0;
#X connect 10 1 14 0;
#X connect 10 2 13 0;
#X connect 11 0 12 0;
#X connect 12 0 10 0;
#X connect 13 0 14 0;
#X connect 15 0 4 0;
#X connect 15 1 17 0;
#X connect 15 2 16 0;
#X connect 16 0 17 0;
#X restore 109 38 pd initPopup;
#X obj 255 393 pack s s;
#X msg 255 365 b1;
#X obj 170 249 t s s;
#X msg 323 156 in;
#X obj 266 49 route /std/port/io;
#X obj 266 21 receive rcvOsc;
#X obj 266 77 unpack s s;
#X obj 491 210 popup 124 25 #ffffff b0 b0 b1 b2 b3 b4 b5 b6 b7 b8 b9
b10 b11 b12 b13 d0 d2 d3 d4 c13 c14 f0 f1;
#X obj 644 209 popup 124 25 #ffffff low low high;
#X obj 767 331 t b s;
#X obj 694 395 pack s s;
#X msg 694 367 b0;
#X obj 608 248 t s s;
#X msg 761 155;
#X obj 704 20 receive rcvOsc;
#X obj 704 76 unpack s s;
#X obj 704 48 route /std/port/in;
#X obj 644 181 receive ioState;
#X obj 53 183 receive portName;
#X obj 491 182 receive portName;
#X obj 329 305 gate;
#X obj 323 104 t b s b;
#X msg 430 130 0;
#X obj 767 306 gate;
#X obj 761 103 t b s b;
#X msg 868 129 0;
#X obj 25 76 print error;
#X obj 430 212 t a;
#X obj 868 210 t a;
#X msg 761 275 1;
#X msg 323 276 1;
#X obj 761 247 t b s;
#X obj 323 249 t b s;
#X obj 323 182 myprepend symbol;
#X obj 761 181 myprepend symbol;
#X obj 197 278 myprepend set;
#X obj 635 277 myprepend set;
#X obj 53 365 myprepend2 send /std/port/io/get;
#X obj 255 419 myprepend2 send /std/port/io/set;
#X obj 491 367 myprepend2 send /std/port/in/get;
#X obj 694 421 myprepend2 send /std/port/out/set;
#X obj 255 446 send sndOsc;
#X obj 694 448 send sndOsc;
#X obj 342 131 myprepend set;
#X obj 780 130 myprepend set;
#X connect 0 1 9 0;
#X connect 1 1 39 0;
#X connect 2 0 8 0;
#X connect 2 1 7 1;
#X connect 3 1 33 0;
#X connect 5 0 1 0;
#X connect 7 0 45 0;
#X connect 8 0 7 0;
#X connect 9 0 44 0;
#X connect 9 1 42 0;
#X connect 10 0 40 0;
#X connect 11 0 13 0;
#X connect 12 0 11 0;
#X connect 13 1 28 0;
#X connect 14 1 19 0;
#X connect 15 1 38 0;
#X connect 16 0 18 0;
#X connect 16 1 17 1;
#X connect 17 0 47 0;
#X connect 18 0 17 0;
#X connect 19 0 46 0;
#X connect 19 1 43 0;
#X connect 20 0 41 0;
#X connect 21 0 23 0;
#X connect 22 1 31 0;
#X connect 23 0 22 0;
#X connect 24 0 15 0;
#X connect 25 0 0 0;
#X connect 26 0 14 0;
#X connect 27 0 2 0;
#X connect 28 0 10 0;
#X connect 28 1 50 0;
#X connect 28 2 29 0;
#X connect 29 0 34 0;
#X connect 30 0 16 0;
#X connect 31 0 20 0;
#X connect 31 1 51 0;
#X connect 31 2 32 0;
#X connect 32 0 35 0;
#X connect 34 0 27 0;
#X connect 35 0 30 0;
#X connect 36 0 30 0;
#X connect 37 0 27 0;
#X connect 38 0 36 0;
#X connect 38 1 30 1;
#X connect 39 0 37 0;
#X connect 39 1 27 1;
#X connect 40 0 1 1;
#X connect 41 0 15 1;
#X connect 42 0 8 0;
#X connect 43 0 18 0;
#X connect 44 0 48 0;
#X connect 45 0 48 0;
#X connect 46 0 49 0;
#X connect 47 0 49 0;
#X connect 50 0 10 0;
#X connect 51 0 20 0;
