#N canvas 484 163 947 589 10;
#X obj 53 274 popup 124 25 #ffffff b0 b0 b1 b2 b3 b4 b5 b6 b7 b8 b9
b10 b11 b12 b13 d0 d2 d3 d4 c13 c14 f0 f1;
#X obj 206 273 popup 124 25 #ffffff in in out;
#X obj 329 394 t b s;
#X obj 255 524 route list;
#X obj 255 551 send sndOsc;
#N canvas 317 94 450 300 OSC_Comm 0;
#X obj 61 75 dumpOSC 8000;
#X obj 61 104 send rcvOsc;
#X obj 170 139 sendOSC;
#X msg 182 89 connect picrouter.local 8080;
#X msg 195 116 disconnect;
#X obj 170 36 receive sndOsc;
#X obj 266 61 delay 1000;
#X obj 266 35 loadbang;
#X obj 58 149 receive rcvOsc;
#X obj 115 233 outlet;
#X obj 58 179 route /sys/error;
#X obj 57 232 outlet;
#X obj 61 37 receive rcvPort;
#X connect 0 0 1 0;
#X connect 3 0 2 0;
#X connect 4 0 2 0;
#X connect 5 0 2 0;
#X connect 6 0 3 0;
#X connect 7 0 6 0;
#X connect 8 0 10 0;
#X connect 10 0 9 0;
#X connect 10 1 11 0;
#X restore 24 39 pd OSC_Comm;
#X text 23 10 Digital Port Control;
#X obj 206 245 receive ioType;
#N canvas 518 400 595 496 initPopup 0;
#X msg 402 94 0;
#X obj 410 66 t b a b;
#X obj 410 15 loadbang;
#X msg 27 44 options b0 b1 b2 b3 b4 b5 b6 b7 b8 b9 b10 b11 b12 b13
d0 d2 d3 d4 c13 c14 f0 f1;
#X msg 19 112 0;
#X msg 27 17 loadbang;
#X msg 410 40 options in out;
#X msg 449 95 name in;
#X obj 429 122 send ioType;
#X msg 403 241 0;
#X obj 411 213 t b a b;
#X obj 411 162 loadbang;
#X msg 411 187 options low high;
#X msg 450 242 name low;
#X obj 430 269 send ioState;
#X obj 27 83 t b a b;
#X msg 66 113 name b0;
#X obj 46 145 send portName;
#X connect 0 0 8 0;
#X connect 1 0 0 0;
#X connect 1 1 8 0;
#X connect 1 2 7 0;
#X connect 2 0 6 0;
#X connect 3 0 15 0;
#X connect 4 0 17 0;
#X connect 5 0 3 0;
#X connect 6 0 1 0;
#X connect 7 0 8 0;
#X connect 9 0 14 0;
#X connect 10 0 9 0;
#X connect 10 1 14 0;
#X connect 10 2 13 0;
#X connect 11 0 12 0;
#X connect 12 0 10 0;
#X connect 13 0 14 0;
#X connect 15 0 4 0;
#X connect 15 1 17 0;
#X connect 15 2 16 0;
#X connect 16 0 17 0;
#X restore 109 38 pd initPopup;
#X obj 255 471 pack s s;
#X obj 197 341 list prepend set;
#X obj 197 366 route list;
#X msg 255 443 b0;
#X obj 255 497 list prepend send /std/port/io/set;
#X obj 39 444 list prepend send /std/port/io/get;
#X obj 170 312 t s s;
#X msg 323 189 out;
#X obj 342 131 list prepend set;
#X obj 266 49 route /std/port/io;
#X obj 266 21 receive rcvOsc;
#X obj 266 77 unpack s s;
#X obj 342 159 route list;
#X obj 323 243 route list;
#X obj 323 215 list prepend symbol;
#X obj 491 273 popup 124 25 #ffffff b0 b0 b1 b2 b3 b4 b5 b6 b7 b8 b9
b10 b11 b12 b13 d0 d2 d3 d4 c13 c14 f0 f1;
#X obj 644 272 popup 124 25 #ffffff low low high;
#X obj 767 394 t b s;
#X obj 671 526 route list;
#X obj 671 553 send sndOsc;
#X obj 671 473 pack s s;
#X obj 635 340 list prepend set;
#X obj 635 365 route list;
#X msg 671 445 b0;
#X obj 608 311 t s s;
#X msg 761 188;
#X obj 780 130 list prepend set;
#X obj 704 20 receive rcvOsc;
#X obj 704 76 unpack s s;
#X obj 780 158 route list;
#X obj 761 242 route list;
#X obj 761 214 list prepend symbol;
#X obj 704 48 route /std/port/in;
#X obj 455 446 list prepend send /std/port/in/get;
#X obj 671 499 list prepend send /std/port/out/set;
#X obj 644 244 receive ioState;
#X obj 53 246 receive portName;
#X obj 491 245 receive portName;
#X obj 329 368 gate;
#X obj 323 104 t b s b;
#X msg 453 130 0;
#X obj 767 369 gate;
#X obj 761 103 t b s b;
#X msg 893 129 0;
#X obj 25 76 print error;
#X obj 453 275 t a;
#X obj 893 273 t a;
#X msg 761 338 1;
#X msg 323 339 1;
#X obj 761 310 t b s;
#X obj 323 312 t b s;
#X connect 0 1 15 0;
#X connect 1 1 59 0;
#X connect 2 0 12 0;
#X connect 2 1 9 1;
#X connect 3 0 4 0;
#X connect 5 1 53 0;
#X connect 7 0 1 0;
#X connect 9 0 13 0;
#X connect 10 0 11 0;
#X connect 11 0 12 0;
#X connect 12 0 9 0;
#X connect 13 0 3 0;
#X connect 14 0 3 0;
#X connect 15 0 14 0;
#X connect 15 1 10 0;
#X connect 16 0 23 0;
#X connect 17 0 21 0;
#X connect 18 0 20 0;
#X connect 19 0 18 0;
#X connect 20 1 48 0;
#X connect 21 0 16 0;
#X connect 22 0 1 1;
#X connect 23 0 22 0;
#X connect 24 1 33 0;
#X connect 25 1 58 0;
#X connect 26 0 32 0;
#X connect 26 1 29 1;
#X connect 27 0 28 0;
#X connect 29 0 43 0;
#X connect 30 0 31 0;
#X connect 31 0 32 0;
#X connect 32 0 29 0;
#X connect 33 0 42 0;
#X connect 33 1 30 0;
#X connect 34 0 40 0;
#X connect 35 0 38 0;
#X connect 36 0 41 0;
#X connect 37 1 51 0;
#X connect 38 0 34 0;
#X connect 39 0 25 1;
#X connect 40 0 39 0;
#X connect 41 0 37 0;
#X connect 42 0 27 0;
#X connect 43 0 27 0;
#X connect 44 0 25 0;
#X connect 45 0 0 0;
#X connect 46 0 24 0;
#X connect 47 0 2 0;
#X connect 48 0 16 0;
#X connect 48 1 17 0;
#X connect 48 2 49 0;
#X connect 49 0 54 0;
#X connect 50 0 26 0;
#X connect 51 0 34 0;
#X connect 51 1 35 0;
#X connect 51 2 52 0;
#X connect 52 0 55 0;
#X connect 54 0 47 0;
#X connect 55 0 50 0;
#X connect 56 0 50 0;
#X connect 57 0 47 0;
#X connect 58 0 56 0;
#X connect 58 1 50 1;
#X connect 59 0 57 0;
#X connect 59 1 47 1;
