#N canvas 741 22 921 968 10;
#X obj 34 705 popup 124 25 #ffffff a0 an0 an1 an2 an3 an4 an5 an6 an7
an8 an9 an10 an11 an12 an13;
#X obj 187 704 popup 124 25 #ffffff in in out;
#X obj 310 812 t b s;
#X obj 236 911 route list;
#X obj 236 933 send sndOsc;
#N canvas 317 94 450 300 OSC_Comm 0;
#X obj 61 75 dumpOSC 8000;
#X obj 61 104 send rcvOsc;
#X obj 170 139 sendOSC;
#X msg 182 89 connect picrouter.local 8080;
#X msg 195 116 disconnect;
#X obj 170 36 receive sndOsc;
#X obj 266 61 delay 1000;
#X obj 266 35 loadbang;
#X obj 58 149 receive rcvOsc;
#X obj 115 233 outlet;
#X obj 58 179 route /sys/error;
#X obj 57 232 outlet;
#X obj 61 37 receive rcvPort;
#X connect 0 0 1 0;
#X connect 3 0 2 0;
#X connect 4 0 2 0;
#X connect 5 0 2 0;
#X connect 6 0 3 0;
#X connect 7 0 6 0;
#X connect 8 0 10 0;
#X connect 10 0 9 0;
#X connect 10 1 11 0;
#X restore 24 39 pd OSC_Comm;
#X obj 187 682 receive ioType;
#N canvas 841 462 407 338 initPopup 0;
#X msg 150 264 0;
#X obj 158 236 t b a b;
#X obj 158 185 loadbang;
#X msg 19 112 0;
#X msg 27 17 loadbang;
#X msg 158 210 options in out;
#X msg 197 265 name in;
#X obj 177 292 send ioType;
#X msg 271 263 0;
#X obj 279 235 t b a b;
#X obj 279 184 loadbang;
#X msg 279 209 options low high;
#X msg 318 264 name low;
#X obj 298 291 send ioState;
#X obj 27 83 t b a b;
#X obj 46 145 send portName;
#X msg 27 44 options an0 an1 an2 an3 an4 an5 an6 an7 an8 an9 an10 an11
an12 an13;
#X msg 24 268 0;
#X obj 32 240 t b a b;
#X obj 32 189 loadbang;
#X msg 32 214 options off on;
#X msg 71 269 name off;
#X obj 51 296 send adcState;
#X msg 66 113 name a0;
#X connect 0 0 7 0;
#X connect 1 0 0 0;
#X connect 1 1 7 0;
#X connect 1 2 6 0;
#X connect 2 0 5 0;
#X connect 3 0 15 0;
#X connect 4 0 16 0;
#X connect 5 0 1 0;
#X connect 6 0 7 0;
#X connect 8 0 13 0;
#X connect 9 0 8 0;
#X connect 9 1 13 0;
#X connect 9 2 12 0;
#X connect 10 0 11 0;
#X connect 11 0 9 0;
#X connect 12 0 13 0;
#X connect 14 0 3 0;
#X connect 14 1 15 0;
#X connect 14 2 23 0;
#X connect 16 0 14 0;
#X connect 17 0 22 0;
#X connect 18 0 17 0;
#X connect 18 1 22 0;
#X connect 18 2 21 0;
#X connect 19 0 20 0;
#X connect 20 0 18 0;
#X connect 21 0 22 0;
#X connect 23 0 15 0;
#X restore 109 38 pd initPopup;
#X obj 178 788 list prepend set;
#X obj 178 810 route list;
#X msg 236 839 0;
#X msg 304 636 in;
#X obj 323 591 list prepend set;
#X obj 247 498 receive rcvOsc;
#X obj 323 614 route list;
#X obj 304 680 route list;
#X obj 304 658 list prepend symbol;
#X obj 472 704 popup 124 25 #ffffff a0 an0 an1 an2 an3 an4 an5 an6
an7 an8 an9 an10 an11 an12 an13;
#X obj 625 703 popup 124 25 #ffffff low low high;
#X obj 748 812 t b s;
#X obj 652 913 route list;
#X obj 652 935 send sndOsc;
#X obj 620 791 list prepend set;
#X obj 620 813 route list;
#X msg 652 841 0;
#X msg 742 635 low;
#X obj 761 590 list prepend set;
#X obj 685 497 receive rcvOsc;
#X obj 761 613 route list;
#X obj 742 679 route list;
#X obj 742 657 list prepend symbol;
#X obj 625 681 receive ioState;
#X obj 34 683 receive portName;
#X obj 472 682 receive portName;
#X obj 310 789 gate;
#X obj 304 565 t b s b;
#X msg 434 590 0;
#X obj 748 790 gate;
#X obj 742 564 t b s b;
#X msg 874 589 0;
#X obj 25 76 print error;
#X obj 434 706 t a;
#X obj 874 704 t a;
#X msg 742 759 1;
#X msg 304 760 1;
#X obj 742 735 t b s;
#X obj 304 737 t b s;
#X obj 74 236 popup 124 25 #ffffff a0 an0 an1 an2 an3 an4 an5 an6 an7
an8 an9 an10 an11 an12 an13;
#X obj 227 235 popup 124 25 #ffffff off off on;
#X obj 350 342 t b s;
#X obj 254 439 route list;
#X obj 254 461 send sndOsc;
#X obj 215 321 list prepend set;
#X obj 215 343 route list;
#X msg 254 373 0;
#X msg 344 166 off;
#X obj 363 121 list prepend set;
#X obj 287 30 receive rcvOsc;
#X obj 363 144 route list;
#X obj 344 210 route list;
#X obj 344 188 list prepend symbol;
#X obj 74 213 receive portName;
#X obj 350 320 gate;
#X obj 344 98 t b s b;
#X msg 476 120 0;
#X obj 476 236 t a;
#X msg 344 289 1;
#X obj 344 267 t b s;
#X obj 287 53 route /std/adc/enable;
#X obj 18 374 list prepend send /std/adc/enable/get;
#X obj 254 417 list prepend send /std/adc/enable/set;
#X obj 227 212 receive adcState;
#X obj 247 521 route /std/adc/dio;
#X obj 685 519 route /std/adc/din;
#X obj 20 840 list prepend send /std/adc/dio/get;
#X obj 236 888 list prepend send /std/adc/dio/set;
#X obj 436 842 list prepend send /std/adc/din/get;
#X obj 652 891 list prepend send /std/adc/dout/set;
#X obj 247 543 unpack f s;
#X obj 685 542 unpack f s;
#X obj 34 736 t a a;
#X obj 472 735 t a a;
#X obj 287 75 unpack f s;
#X obj 74 267 t a a;
#X obj 236 867 pack f s;
#X obj 652 869 pack f s;
#X obj 254 395 pack f s;
#X obj 539 54 receive rcvOsc;
#X obj 539 76 route /std/adc;
#X obj 539 99 route 0 1 2 3 4 5 6 7 8 9 10 11 12 13;
#X obj 539 126 vsl 10 128 0 1024 0 0 empty empty empty 0 -9 0 10 -262144
-1 -1 25 1;
#X obj 554 126 vsl 10 128 0 1024 0 0 empty empty empty 0 -9 0 10 -262144
-1 -1 0 1;
#X obj 570 126 vsl 10 128 0 1024 0 0 empty empty empty 0 -9 0 10 -262144
-1 -1 0 1;
#X obj 585 126 vsl 10 128 0 1024 0 0 empty empty empty 0 -9 0 10 -262144
-1 -1 0 1;
#X obj 601 126 vsl 10 128 0 1024 0 0 empty empty empty 0 -9 0 10 -262144
-1 -1 0 1;
#X obj 617 126 vsl 10 128 0 1024 0 0 empty empty empty 0 -9 0 10 -262144
-1 -1 0 1;
#X obj 632 126 vsl 10 128 0 1024 0 0 empty empty empty 0 -9 0 10 -262144
-1 -1 0 1;
#X obj 648 126 vsl 10 128 0 1024 0 0 empty empty empty 0 -9 0 10 -262144
-1 -1 0 1;
#X obj 664 126 vsl 10 128 0 1024 0 0 empty empty empty 0 -9 0 10 -262144
-1 -1 0 1;
#X obj 679 126 vsl 10 128 0 1024 0 0 empty empty empty 0 -9 0 10 -262144
-1 -1 0 1;
#X obj 695 126 vsl 10 128 0 1024 0 0 empty empty empty 0 -9 0 10 -262144
-1 -1 0 1;
#X obj 711 126 vsl 10 128 0 1024 0 0 empty empty empty 0 -9 0 10 -262144
-1 -1 0 1;
#X obj 726 126 vsl 10 128 0 1024 0 0 empty empty empty 0 -9 0 10 -262144
-1 -1 0 1;
#X obj 742 126 vsl 10 128 0 1024 0 0 empty empty empty 0 -9 0 10 -262144
-1 -1 0 1;
#X obj 758 126 vsl 10 128 0 1024 0 0 empty empty empty 0 -9 0 10 -262144
-1 -1 0 1;
#X text 23 10 A/D Port Control;
#X connect 0 0 80 0;
#X connect 1 1 46 0;
#X connect 2 0 10 0;
#X connect 2 1 84 1;
#X connect 3 0 4 0;
#X connect 5 1 40 0;
#X connect 6 0 1 0;
#X connect 8 0 9 0;
#X connect 9 0 10 0;
#X connect 10 0 84 0;
#X connect 11 0 16 0;
#X connect 12 0 14 0;
#X connect 13 0 72 0;
#X connect 14 0 11 0;
#X connect 15 0 1 1;
#X connect 16 0 15 0;
#X connect 17 0 81 0;
#X connect 18 1 45 0;
#X connect 19 0 24 0;
#X connect 19 1 85 1;
#X connect 20 0 21 0;
#X connect 22 0 23 0;
#X connect 23 0 24 0;
#X connect 24 0 85 0;
#X connect 25 0 30 0;
#X connect 26 0 28 0;
#X connect 27 0 73 0;
#X connect 28 0 25 0;
#X connect 29 0 18 1;
#X connect 30 0 29 0;
#X connect 31 0 18 0;
#X connect 32 0 0 0;
#X connect 33 0 17 0;
#X connect 34 0 2 0;
#X connect 35 0 11 0;
#X connect 35 1 12 0;
#X connect 35 2 36 0;
#X connect 36 0 41 0;
#X connect 37 0 19 0;
#X connect 38 0 25 0;
#X connect 38 1 26 0;
#X connect 38 2 39 0;
#X connect 39 0 42 0;
#X connect 41 0 34 0;
#X connect 42 0 37 0;
#X connect 43 0 37 0;
#X connect 44 0 34 0;
#X connect 45 0 43 0;
#X connect 45 1 37 1;
#X connect 46 0 44 0;
#X connect 46 1 34 1;
#X connect 47 0 83 0;
#X connect 48 1 67 0;
#X connect 49 0 54 0;
#X connect 49 1 86 1;
#X connect 50 0 51 0;
#X connect 52 0 53 0;
#X connect 53 0 54 0;
#X connect 54 0 86 0;
#X connect 55 0 60 0;
#X connect 56 0 58 0;
#X connect 57 0 68 0;
#X connect 58 0 55 0;
#X connect 59 0 48 1;
#X connect 60 0 59 0;
#X connect 61 0 47 0;
#X connect 62 0 49 0;
#X connect 63 0 55 0;
#X connect 63 1 56 0;
#X connect 63 2 64 0;
#X connect 64 0 65 0;
#X connect 65 0 62 0;
#X connect 66 0 62 0;
#X connect 67 0 66 0;
#X connect 67 1 62 1;
#X connect 68 0 82 0;
#X connect 69 0 50 0;
#X connect 70 0 50 0;
#X connect 71 0 48 0;
#X connect 72 0 78 0;
#X connect 73 0 79 0;
#X connect 74 0 3 0;
#X connect 75 0 3 0;
#X connect 76 0 20 0;
#X connect 77 0 20 0;
#X connect 78 1 35 0;
#X connect 79 1 38 0;
#X connect 80 0 74 0;
#X connect 80 1 8 0;
#X connect 81 0 76 0;
#X connect 81 1 22 0;
#X connect 82 1 63 0;
#X connect 83 0 69 0;
#X connect 83 1 52 0;
#X connect 84 0 75 0;
#X connect 85 0 77 0;
#X connect 86 0 70 0;
#X connect 87 0 88 0;
#X connect 88 0 89 0;
#X connect 89 0 90 0;
#X connect 89 1 91 0;
#X connect 89 2 92 0;
#X connect 89 3 93 0;
#X connect 89 4 94 0;
#X connect 89 5 95 0;
#X connect 89 6 96 0;
#X connect 89 7 97 0;
#X connect 89 8 98 0;
#X connect 89 9 99 0;
#X connect 89 10 100 0;
#X connect 89 11 101 0;
#X connect 89 12 102 0;
#X connect 89 13 103 0;
#X connect 89 14 104 0;
