#N canvas 410 30 1348 863 10;
#X obj 34 618 popup 124 25 #ffffff oc0 oc0 oc2 oc3 oc4;
#X obj 187 617 popup 124 25 #ffffff in in out;
#X obj 310 725 t b s;
#N canvas 317 94 450 300 OSC_Comm 0;
#X obj 61 75 dumpOSC 8000;
#X obj 61 104 send rcvOsc;
#X obj 170 139 sendOSC;
#X msg 182 89 connect picrouter.local 8080;
#X msg 195 116 disconnect;
#X obj 170 36 receive sndOsc;
#X obj 266 61 delay 1000;
#X obj 266 35 loadbang;
#X obj 58 149 receive rcvOsc;
#X obj 115 233 outlet;
#X obj 58 179 route /sys/error;
#X obj 57 232 outlet;
#X obj 61 37 receive rcvPort;
#X connect 0 0 1 0;
#X connect 3 0 2 0;
#X connect 4 0 2 0;
#X connect 5 0 2 0;
#X connect 6 0 3 0;
#X connect 7 0 6 0;
#X connect 8 0 10 0;
#X connect 10 0 9 0;
#X connect 10 1 11 0;
#X restore 24 39 pd OSC_Comm;
#X obj 187 595 receive ioType;
#N canvas 841 462 407 338 initPopup 0;
#X msg 150 264 0;
#X obj 158 236 t b a b;
#X obj 158 185 loadbang;
#X msg 19 112 0;
#X msg 27 17 loadbang;
#X msg 158 210 options in out;
#X msg 197 265 name in;
#X obj 177 292 send ioType;
#X msg 271 263 0;
#X obj 279 235 t b a b;
#X obj 279 184 loadbang;
#X msg 279 209 options low high;
#X msg 318 264 name low;
#X obj 298 291 send ioState;
#X obj 27 83 t b a b;
#X obj 46 145 send portName;
#X msg 24 268 0;
#X obj 32 240 t b a b;
#X obj 32 189 loadbang;
#X msg 32 214 options off on;
#X msg 71 269 name off;
#X obj 51 296 send adcState;
#X msg 27 44 options oc0 oc2 oc3 oc4;
#X msg 66 113 name oc0;
#X connect 0 0 7 0;
#X connect 1 0 0 0;
#X connect 1 1 7 0;
#X connect 1 2 6 0;
#X connect 2 0 5 0;
#X connect 3 0 15 0;
#X connect 4 0 22 0;
#X connect 5 0 1 0;
#X connect 6 0 7 0;
#X connect 8 0 13 0;
#X connect 9 0 8 0;
#X connect 9 1 13 0;
#X connect 9 2 12 0;
#X connect 10 0 11 0;
#X connect 11 0 9 0;
#X connect 12 0 13 0;
#X connect 14 0 3 0;
#X connect 14 1 15 0;
#X connect 14 2 23 0;
#X connect 16 0 21 0;
#X connect 17 0 16 0;
#X connect 17 1 21 0;
#X connect 17 2 20 0;
#X connect 18 0 19 0;
#X connect 19 0 17 0;
#X connect 20 0 21 0;
#X connect 22 0 14 0;
#X connect 23 0 15 0;
#X restore 109 38 pd initPopup;
#X msg 237 752 1;
#X msg 304 569 out;
#X obj 247 449 receive rcvOsc;
#X obj 472 617 popup 124 25 #ffffff oc0 oc0 oc2 oc3 oc4;
#X obj 625 616 popup 124 25 #ffffff low low high;
#X obj 748 725 t b s;
#X msg 675 754 0;
#X msg 742 568 low;
#X obj 685 448 receive rcvOsc;
#X obj 625 594 receive ioState;
#X obj 34 596 receive portName;
#X obj 472 595 receive portName;
#X obj 310 702 gate;
#X obj 304 516 t b s b;
#X msg 413 541 0;
#X obj 748 703 gate;
#X obj 742 515 t b s b;
#X msg 851 540 0;
#X obj 25 76 print error;
#X obj 413 619 t a;
#X obj 851 617 t a;
#X msg 742 672 1;
#X msg 304 673 1;
#X obj 742 648 t b s;
#X obj 304 650 t b s;
#X obj 74 197 popup 124 25 #ffffff oc0 oc0 oc2 oc3 oc4;
#X obj 227 196 popup 124 25 #ffffff off off on;
#X obj 350 303 t b s;
#X msg 294 334 0;
#X msg 344 146 off;
#X obj 287 30 receive rcvOsc;
#X obj 74 174 receive portName;
#X obj 350 281 gate;
#X obj 344 98 t b s b;
#X msg 452 120 0;
#X obj 452 197 t a;
#X msg 344 250 1;
#X obj 344 228 t b s;
#X obj 227 173 receive adcState;
#X obj 247 494 unpack f s;
#X obj 685 493 unpack f s;
#X obj 34 649 t a a;
#X obj 472 648 t a a;
#X obj 287 75 unpack f s;
#X obj 74 228 t a a;
#X obj 237 780 pack f s;
#X obj 675 782 pack f s;
#X obj 294 356 pack f s;
#X obj 1116 232 receive rcvOsc;
#X obj 61 673 myprepend set;
#X obj 499 673 myprepend set;
#X obj 323 542 myprepend set;
#X obj 761 541 myprepend set;
#X obj 363 121 myprepend set;
#X obj 101 253 myprepend set;
#X obj 344 170 myprepend symbol;
#X obj 304 592 myprepend symbol;
#X obj 742 592 myprepend symbol;
#X obj 237 824 send sndOsc;
#X obj 675 826 send sndOsc;
#X obj 294 400 send sndOsc;
#X obj 247 472 route /std/pwm/dio;
#X obj 685 470 route /std/pwm/din;
#X obj 34 751 myprepend2 send /std/pwm/dio/get;
#X obj 472 754 myprepend2 send /std/pwm/din/get;
#X obj 237 801 myprepend2 send /std/pwm/dio/set;
#X obj 675 804 myprepend2 send /std/pwm/dout/set;
#X obj 287 53 route /std/pwm/enable;
#X obj 74 333 myprepend2 send /std/pwm/enable/get;
#X obj 294 378 myprepend2 send /std/pwm/enable/set;
#X obj 1133 303 hsl 200 15 20 44100 0 0 empty empty empty -2 -8 0 10
-262144 -1 -1 0 1;
#X obj 1116 254 route /std/pwm/freq;
#X msg 1116 278 set \$1;
#X obj 1116 405 send sndOsc;
#X msg 964 377 send /std/pwm/freq/get;
#X floatatom 1116 326 5 0 0 0 - - -;
#X obj 1116 377 myprepend2 send /std/pwm/freq/set;
#X obj 1116 351 int;
#X obj 536 191 popup 124 25 #ffffff oc0 oc0 oc2 oc3 oc4;
#X msg 744 328 0;
#X obj 705 133 receive rcvOsc;
#X obj 536 169 receive portName;
#X obj 536 222 t a a;
#X obj 563 247 myprepend set;
#X obj 744 400 send sndOsc;
#X obj 705 155 route /std/pwm/duty;
#X obj 536 328 myprepend2 send /std/pwm/duty/get;
#X obj 744 378 myprepend2 send /std/pwm/duty/set;
#X obj 744 356 pack f f;
#X obj 779 228 hsl 100 15 0 100 0 0 empty empty empty -2 -8 0 10 -262144
-1 -1 0 1;
#X msg 762 203 set \$1;
#X floatatom 762 251 5 0 0 0 - - -;
#X obj 762 276 int;
#X obj 705 178 unpack f f;
#X obj 762 303 t b f;
#X text 23 10 PWM Port Control;
#X connect 0 0 47 0;
#X connect 1 1 30 0;
#X connect 2 0 6 0;
#X connect 2 1 51 1;
#X connect 3 1 24 0;
#X connect 4 0 1 0;
#X connect 6 0 51 0;
#X connect 7 0 62 0;
#X connect 8 0 67 0;
#X connect 9 0 48 0;
#X connect 10 1 29 0;
#X connect 11 0 12 0;
#X connect 11 1 52 1;
#X connect 12 0 52 0;
#X connect 13 0 63 0;
#X connect 14 0 68 0;
#X connect 15 0 10 0;
#X connect 16 0 0 0;
#X connect 17 0 9 0;
#X connect 18 0 2 0;
#X connect 19 0 7 0;
#X connect 19 1 57 0;
#X connect 19 2 20 0;
#X connect 20 0 25 0;
#X connect 21 0 11 0;
#X connect 22 0 13 0;
#X connect 22 1 58 0;
#X connect 22 2 23 0;
#X connect 23 0 26 0;
#X connect 25 0 18 0;
#X connect 26 0 21 0;
#X connect 27 0 21 0;
#X connect 28 0 18 0;
#X connect 29 0 27 0;
#X connect 29 1 21 1;
#X connect 30 0 28 0;
#X connect 30 1 18 1;
#X connect 31 0 50 0;
#X connect 32 1 43 0;
#X connect 33 0 34 0;
#X connect 33 1 53 1;
#X connect 34 0 53 0;
#X connect 35 0 61 0;
#X connect 36 0 73 0;
#X connect 37 0 31 0;
#X connect 38 0 33 0;
#X connect 39 0 35 0;
#X connect 39 1 59 0;
#X connect 39 2 40 0;
#X connect 40 0 41 0;
#X connect 41 0 38 0;
#X connect 42 0 38 0;
#X connect 43 0 42 0;
#X connect 43 1 38 1;
#X connect 44 0 32 0;
#X connect 45 1 19 0;
#X connect 46 1 22 0;
#X connect 47 0 69 0;
#X connect 47 1 55 0;
#X connect 48 0 70 0;
#X connect 48 1 56 0;
#X connect 49 1 39 0;
#X connect 50 0 74 0;
#X connect 50 1 60 0;
#X connect 51 0 71 0;
#X connect 52 0 72 0;
#X connect 53 0 75 0;
#X connect 54 0 77 0;
#X connect 55 0 6 0;
#X connect 56 0 12 0;
#X connect 57 0 7 0;
#X connect 58 0 13 0;
#X connect 59 0 35 0;
#X connect 60 0 34 0;
#X connect 61 0 32 1;
#X connect 62 0 1 1;
#X connect 63 0 10 1;
#X connect 67 0 45 0;
#X connect 68 0 46 0;
#X connect 69 0 64 0;
#X connect 70 0 65 0;
#X connect 71 0 64 0;
#X connect 72 0 65 0;
#X connect 73 0 49 0;
#X connect 74 0 66 0;
#X connect 75 0 66 0;
#X connect 76 0 81 0;
#X connect 77 0 78 0;
#X connect 78 0 76 0;
#X connect 78 0 81 0;
#X connect 80 0 79 0;
#X connect 81 0 83 0;
#X connect 82 0 79 0;
#X connect 83 0 82 0;
#X connect 84 0 88 0;
#X connect 85 0 94 0;
#X connect 86 0 91 0;
#X connect 87 0 84 0;
#X connect 88 0 92 0;
#X connect 88 1 89 0;
#X connect 89 0 85 0;
#X connect 91 0 99 0;
#X connect 92 0 90 0;
#X connect 93 0 90 0;
#X connect 94 0 93 0;
#X connect 95 0 97 0;
#X connect 96 0 95 0;
#X connect 96 0 97 0;
#X connect 97 0 98 0;
#X connect 98 0 100 0;
#X connect 99 1 96 0;
#X connect 100 0 85 0;
#X connect 100 1 94 1;
