#N canvas 361 113 1349 856 10;
#X obj -109 569 popup 124 25 #ffffff sck2 sck2 sdi2 sdo2 sck4 sdi4
sdo4;
#X obj 24 569 popup 124 25 #ffffff in in out;
#X obj 147 677 t b s;
#N canvas 900 306 450 300 OSC_Comm 0;
#X obj 61 75 dumpOSC 8000;
#X obj 61 104 send rcvOsc;
#X obj 170 139 sendOSC;
#X msg 182 89 connect picrouter.local 8080;
#X msg 195 116 disconnect;
#X obj 170 36 receive sndOsc;
#X obj 266 61 delay 1000;
#X obj 266 35 loadbang;
#X obj 58 149 receive rcvOsc;
#X obj 115 233 outlet;
#X obj 58 179 route /sys/error;
#X obj 57 232 outlet;
#X obj 61 37 receive rcvPort;
#X connect 0 0 1 0;
#X connect 3 0 2 0;
#X connect 4 0 2 0;
#X connect 5 0 2 0;
#X connect 6 0 3 0;
#X connect 7 0 6 0;
#X connect 8 0 10 0;
#X connect 10 0 9 0;
#X connect 10 1 11 0;
#X restore -114 41 pd OSC_Comm;
#N canvas 37 590 1067 580 initPopup 0;
#X msg 150 264 0;
#X obj 158 236 t b a b;
#X obj 158 185 loadbang;
#X msg 19 112 0;
#X msg 27 17 loadbang;
#X msg 158 210 options in out;
#X msg 197 265 name in;
#X obj 177 292 send ioType;
#X msg 271 263 0;
#X obj 279 235 t b a b;
#X obj 279 184 loadbang;
#X msg 279 209 options low high;
#X msg 318 264 name low;
#X obj 298 291 send ioState;
#X obj 27 83 t b a b;
#X obj 46 145 send portName;
#X msg 272 107 0;
#X obj 280 79 t b a b;
#X obj 280 18 loadbang;
#X msg 27 44 options sck2 sdi2 sdo2 sck4 sdi4 sdo4;
#X msg 280 43 options msten ckp ssen cke smp mode16 mode32 dissdo sidl
frz on spife frmpol frmsync frmen;
#X msg 66 113 name sck2;
#X msg 319 108 name msten;
#X obj 299 135 send configList;
#X msg 401 263 0;
#X obj 409 235 t b a b;
#X obj 409 184 loadbang;
#X obj 428 291 send spiSel;
#X msg 639 106 0;
#X obj 647 78 t b a b;
#X obj 647 17 loadbang;
#X msg 647 42 options b0 b1 b2 b3 b4 b5 b6 b7 b8 b9 b10 b11 b12 b13
d0 d2 d3 d4 c13 c14 f0 f1 b14 f4 f5 g6 g7 g8;
#X msg 686 107 name b0;
#X obj 666 134 send ssList;
#X msg 533 264 0;
#X obj 541 236 t b a b;
#X obj 541 185 loadbang;
#X msg 541 210 options HL LH;
#X msg 580 265 name HL;
#X obj 560 292 send activeList;
#X msg 674 264 0;
#X obj 682 236 t b a b;
#X obj 682 185 loadbang;
#X obj 701 290 send dataSize;
#X msg 409 209 options spi2 spi4;
#X msg 448 264 name spi2;
#X msg 682 210 options 1word 2words 4words;
#X msg 721 265 name 1word;
#X connect 0 0 7 0;
#X connect 1 0 0 0;
#X connect 1 1 7 0;
#X connect 1 2 6 0;
#X connect 2 0 5 0;
#X connect 3 0 15 0;
#X connect 4 0 19 0;
#X connect 5 0 1 0;
#X connect 6 0 7 0;
#X connect 8 0 13 0;
#X connect 9 0 8 0;
#X connect 9 1 13 0;
#X connect 9 2 12 0;
#X connect 10 0 11 0;
#X connect 11 0 9 0;
#X connect 12 0 13 0;
#X connect 14 0 3 0;
#X connect 14 1 15 0;
#X connect 14 2 21 0;
#X connect 16 0 23 0;
#X connect 17 0 16 0;
#X connect 17 1 23 0;
#X connect 17 2 22 0;
#X connect 18 0 20 0;
#X connect 19 0 14 0;
#X connect 20 0 17 0;
#X connect 21 0 15 0;
#X connect 22 0 23 0;
#X connect 24 0 27 0;
#X connect 25 0 24 0;
#X connect 25 1 27 0;
#X connect 25 2 45 0;
#X connect 26 0 44 0;
#X connect 28 0 33 0;
#X connect 29 0 28 0;
#X connect 29 1 33 0;
#X connect 29 2 32 0;
#X connect 30 0 31 0;
#X connect 31 0 29 0;
#X connect 32 0 33 0;
#X connect 34 0 39 0;
#X connect 35 0 34 0;
#X connect 35 1 39 0;
#X connect 35 2 38 0;
#X connect 36 0 37 0;
#X connect 37 0 35 0;
#X connect 38 0 39 0;
#X connect 40 0 43 0;
#X connect 41 0 40 0;
#X connect 41 1 43 0;
#X connect 41 2 47 0;
#X connect 42 0 46 0;
#X connect 44 0 25 0;
#X connect 45 0 27 0;
#X connect 46 0 41 0;
#X connect 47 0 43 0;
#X restore -29 40 pd initPopup;
#X msg 94 703 sck2;
#X msg 141 521 out;
#X obj 84 401 receive rcvOsc;
#X obj 307 568 popup 124 25 #ffffff sck2 sck2 sdi2 sdo2 sck4 sdi4 sdo4
;
#X obj 440 568 popup 124 25 #ffffff low low high;
#X obj 563 677 t b s;
#X msg 510 705 sck2;
#X msg 557 520 high;
#X obj 500 400 receive rcvOsc;
#X obj -109 547 receive portName;
#X obj 307 546 receive portName;
#X obj 147 654 gate;
#X obj 141 468 t b s b;
#X msg 250 493 0;
#X obj 563 655 gate;
#X obj 557 467 t b s b;
#X msg 666 492 0;
#X obj -113 78 print error;
#X obj 250 571 t a;
#X obj 666 569 t a;
#X msg 557 624 1;
#X msg 141 625 1;
#X obj 557 600 t b s;
#X obj 141 602 t b s;
#X obj -109 628 t a a;
#X obj 307 628 t a a;
#X obj 94 775 send sndOsc;
#X obj 510 777 send sndOsc;
#X text -115 12 SPI Port Control;
#X obj 84 424 route /std/spi/dio;
#X obj 500 422 route /std/spi/din;
#X obj 657 73 popup 124 25 #ffffff spi2 spi2 spi4;
#X obj 657 51 receive spiSel;
#X obj 784 73 popup 124 25 #ffffff b0 b0 b1 b2 b3 b4 b5 b6 b7 b8 b9
b10 b11 b12 b13 d0 d2 d3 d4 c13 c14 f0 f1 b14 f4 f5 g6 g7 g8;
#X obj 784 51 receive ssList;
#X obj 911 73 popup 124 25 #ffffff HL HL LH;
#X obj 911 51 receive activeList;
#X obj 1038 73 popup 124 25 #ffffff 1word 1word 2words 4words;
#X obj 1038 51 receive dataSize;
#X floatatom 1166 72 5 2 1024 0 - - -;
#X obj 726 399 popup 124 25 #ffffff spi2 spi2 spi4;
#X obj 726 377 receive spiSel;
#X obj 853 399 popup 124 25 #ffffff b0 b0 b1 b2 b3 b4 b5 b6 b7 b8 b9
b10 b11 b12 b13 d0 d2 d3 d4 c13 c14 f0 f1 b14 f4 f5 g6 g7 g8;
#X obj 853 377 receive ssList;
#X obj 980 399 popup 124 25 #ffffff HL HL LH;
#X obj 980 377 receive activeList;
#X floatatom 1160 398 5 2 1024 0 - - -;
#X obj -17 109 popup 124 25 #ffffff spi2 spi2 spi4;
#X obj -17 87 receive spiSel;
#X obj 189 109 popup 124 25 #ffffff msten msten ckp ssen cke smp mode16
mode32 dissdo sidl frz on spife frmpol frmsync frmen;
#X obj 189 87 receive configList;
#X obj 312 218 myzl_thin;
#X msg 363 192 list;
#X floatatom 137 112 5 2 1024 0 - - -;
#X obj 122 234 int;
#X obj -32 233 int;
#X obj -88 291 t b b b;
#X obj 291 246 list;
#X obj 252 278 zl join;
#X obj 213 304 zl join;
#X obj -88 267 bng 15 250 50 0 empty empty empty 17 7 0 10 -262144
-1 -1;
#X obj -17 179 select 0 1;
#X msg -17 203 2;
#X msg 11 203 4;
#X obj -49 318 send set0;
#X obj -88 366 send set2;
#X obj -69 342 send set1;
#X obj 232 218 receive set0;
#X obj 57 203 receive set1;
#X obj -100 203 receive set2;
#X text -64 266 Set Configurations;
#X text 126 90 bit rate;
#X text 188 136 Configuration;
#X obj 213 329 list;
#X obj 213 353 myprepend2 send /std/spi/config/set;
#X obj 213 377 send sndOsc;
#X obj 331 294 entry 186 49 grey70 black;
#X obj 331 269 myprepend set;
#X msg 418 269 clear;
#X obj 876 241 pack f s s f f;
#X obj 714 134 select 0 1;
#X msg 714 158 2;
#X msg 742 158 4;
#X obj 876 105 t b s;
#X obj 999 104 t b s;
#X obj 1038 129 select 0 1 2;
#X msg 1095 153 4;
#X msg 1038 153 1;
#X msg 1066 153 2;
#X obj 1038 187 t b f;
#X obj 843 242 bng 15 250 50 0 empty empty empty 17 7 0 10 -262144
-1 -1;
#X obj 843 267 zl reg;
#X obj 843 292 list;
#X obj 843 340 send sndOsc;
#X obj 843 316 myprepend2 send /std/spi/data/set;
#X obj 941 565 pack f s s f f;
#X obj 783 461 select 0 1;
#X msg 783 485 2;
#X msg 811 485 4;
#X obj 941 429 t b s;
#X obj 1068 428 t b s;
#X msg 1107 453 1;
#X obj 908 566 bng 15 250 50 0 empty empty empty 17 7 0 10 -262144
-1 -1;
#X obj 908 591 zl reg;
#X obj 908 616 list;
#X obj 908 664 send sndOsc;
#X obj 1107 429 loadbang;
#X obj 908 640 myprepend2 send /std/spi/data/get;
#X obj 908 689 receive rcvOsc;
#X obj 908 716 route /std/spi/data;
#X obj 908 742 route 2 4;
#X floatatom 908 769 5 0 0 0 - - -;
#X floatatom 947 769 5 0 0 0 - - -;
#X obj 1166 189 t b f;
#X obj 1160 485 t b f;
#X obj 726 434 route bang;
#X obj 657 108 route bang;
#X obj 1038 104 route bang;
#X obj -17 145 route bang;
#X obj -109 604 route bang;
#X obj 307 602 route bang;
#X obj 331 246 zl reg;
#X obj 312 192 gate;
#X obj 306 143 t b s;
#X msg 306 168 1;
#X obj 10 817 print;
#X obj 94 731 pack s s;
#X obj -74 408 route /std/spi/dio;
#X obj 84 446 unpack s s;
#X obj 160 494 prepend set;
#X obj 141 545 prepend symbol;
#X obj -109 702 prepend send /std/spi/dio/get;
#X obj 94 752 prepend send /std/spi/dio/set;
#X obj 500 445 unpack s s;
#X obj 576 493 prepend set;
#X obj 557 542 prepend symbol;
#X obj 334 653 prepend set;
#X obj -82 652 prepend set;
#X obj 307 705 prepend send /std/spi/din/get;
#X obj 510 755 prepend send /std/spi/dout/set;
#X obj 510 733 pack s s;
#X connect 0 1 124 0;
#X connect 1 1 28 0;
#X connect 2 0 5 0;
#X connect 2 1 131 1;
#X connect 3 0 132 0;
#X connect 3 1 22 0;
#X connect 5 0 131 0;
#X connect 6 0 135 0;
#X connect 7 0 34 0;
#X connect 8 1 125 0;
#X connect 9 1 27 0;
#X connect 10 0 11 0;
#X connect 10 1 145 1;
#X connect 11 0 145 0;
#X connect 12 0 140 0;
#X connect 13 0 35 0;
#X connect 14 0 0 0;
#X connect 15 0 8 0;
#X connect 16 0 2 0;
#X connect 17 0 6 0;
#X connect 17 1 134 0;
#X connect 17 2 18 0;
#X connect 18 0 23 0;
#X connect 19 0 10 0;
#X connect 20 0 12 0;
#X connect 20 1 139 0;
#X connect 20 2 21 0;
#X connect 21 0 24 0;
#X connect 23 0 16 0;
#X connect 24 0 19 0;
#X connect 25 0 19 0;
#X connect 26 0 16 0;
#X connect 27 0 25 0;
#X connect 27 1 19 1;
#X connect 28 0 26 0;
#X connect 28 1 16 1;
#X connect 29 0 136 0;
#X connect 29 1 142 0;
#X connect 30 0 143 0;
#X connect 30 1 141 0;
#X connect 34 0 133 0;
#X connect 35 0 138 0;
#X connect 36 0 121 0;
#X connect 37 0 36 0;
#X connect 38 1 88 0;
#X connect 39 0 38 0;
#X connect 40 1 89 0;
#X connect 41 0 40 0;
#X connect 42 0 122 0;
#X connect 43 0 42 0;
#X connect 44 0 118 0;
#X connect 45 0 120 0;
#X connect 46 0 45 0;
#X connect 47 1 104 0;
#X connect 48 0 47 0;
#X connect 49 1 105 0;
#X connect 50 0 49 0;
#X connect 51 0 119 0;
#X connect 52 0 123 0;
#X connect 53 0 52 0;
#X connect 54 1 128 0;
#X connect 55 0 54 0;
#X connect 56 0 62 1;
#X connect 56 0 126 0;
#X connect 57 0 56 1;
#X connect 58 0 59 1;
#X connect 59 0 63 0;
#X connect 60 0 64 0;
#X connect 61 0 70 0;
#X connect 61 1 71 0;
#X connect 61 2 69 0;
#X connect 62 0 63 1;
#X connect 63 0 64 1;
#X connect 64 0 78 0;
#X connect 65 0 61 0;
#X connect 66 0 67 0;
#X connect 66 1 68 0;
#X connect 67 0 60 1;
#X connect 68 0 60 1;
#X connect 72 0 62 0;
#X connect 73 0 59 0;
#X connect 74 0 60 0;
#X connect 78 0 79 0;
#X connect 79 0 80 0;
#X connect 82 0 81 0;
#X connect 83 0 81 0;
#X connect 84 0 96 1;
#X connect 85 0 86 0;
#X connect 85 1 87 0;
#X connect 86 0 84 0;
#X connect 87 0 84 0;
#X connect 88 0 84 0;
#X connect 88 1 84 1;
#X connect 89 0 84 0;
#X connect 89 1 84 2;
#X connect 90 0 92 0;
#X connect 90 1 93 0;
#X connect 90 2 91 0;
#X connect 91 0 94 0;
#X connect 92 0 94 0;
#X connect 93 0 94 0;
#X connect 94 0 84 0;
#X connect 94 1 84 3;
#X connect 95 0 96 0;
#X connect 96 0 97 0;
#X connect 97 0 99 0;
#X connect 99 0 98 0;
#X connect 100 0 108 1;
#X connect 101 0 102 0;
#X connect 101 1 103 0;
#X connect 102 0 100 0;
#X connect 103 0 100 0;
#X connect 104 0 100 0;
#X connect 104 1 100 1;
#X connect 105 0 100 0;
#X connect 105 1 100 2;
#X connect 106 0 100 3;
#X connect 107 0 108 0;
#X connect 108 0 109 0;
#X connect 109 0 112 0;
#X connect 111 0 106 0;
#X connect 112 0 110 0;
#X connect 113 0 114 0;
#X connect 114 0 115 0;
#X connect 115 0 116 0;
#X connect 115 1 117 0;
#X connect 118 0 84 0;
#X connect 118 1 84 4;
#X connect 119 0 100 0;
#X connect 119 1 100 4;
#X connect 120 1 101 0;
#X connect 121 1 85 0;
#X connect 122 1 90 0;
#X connect 123 1 66 0;
#X connect 124 1 29 0;
#X connect 125 1 30 0;
#X connect 126 0 82 0;
#X connect 127 0 56 0;
#X connect 128 0 129 0;
#X connect 128 1 127 1;
#X connect 129 0 127 0;
#X connect 131 0 137 0;
#X connect 133 1 17 0;
#X connect 134 0 6 0;
#X connect 135 0 1 1;
#X connect 136 0 31 0;
#X connect 136 0 130 0;
#X connect 137 0 31 0;
#X connect 137 0 130 0;
#X connect 138 1 20 0;
#X connect 139 0 12 0;
#X connect 140 0 9 1;
#X connect 141 0 11 0;
#X connect 142 0 5 0;
#X connect 143 0 32 0;
#X connect 144 0 32 0;
#X connect 145 0 144 0;
