#N canvas 16 36 1408 845 10;
#X symbolatom 170 178 20 0 0 0 - - -;
#X obj 170 249 send sndOsc;
#X text 200 195 Enter your machine's IP;
#X msg 78 152 set 224.0.0.1;
#X obj 78 127 loadbang;
#N canvas 317 94 450 300 OSC_Comm 0;
#X obj 61 75 dumpOSC 8000;
#X obj 61 104 send rcvOsc;
#X obj 170 139 sendOSC;
#X msg 182 89 connect picrouter.local 8080;
#X msg 195 116 disconnect;
#X obj 170 36 receive sndOsc;
#X obj 266 61 delay 1000;
#X obj 266 35 loadbang;
#X obj 58 149 receive rcvOsc;
#X obj 115 233 outlet;
#X obj 58 179 route /sys/error;
#X obj 57 232 outlet;
#X obj 61 37 receive rcvPort;
#X connect 0 0 1 0;
#X connect 3 0 2 0;
#X connect 4 0 2 0;
#X connect 5 0 2 0;
#X connect 6 0 3 0;
#X connect 7 0 6 0;
#X connect 8 0 10 0;
#X connect 10 0 9 0;
#X connect 10 1 11 0;
#X restore 13 37 pd OSC_Comm;
#X obj 98 65 print error;
#X text 12 8 System Settings;
#X obj 85 319 receive rcvOsc;
#X symbolatom 222 421 20 0 0 0 - - -;
#X obj 222 533 myprepend2 send /sys/host/name/set;
#X msg 354 419 send /sys/host/name/get;
#X obj 222 605 send sndOsc;
#X obj 222 370 myprepend set;
#X text 241 397 Input a host name including ".local";
#X obj 13 65 print rcvOsc;
#X obj 538 314 receive rcvOsc;
#X obj 718 383 myprepend set;
#X floatatom 718 414 5 0 0 0 - - -;
#X obj 718 622 send sndOsc;
#X msg 758 413 send /sys/host/port/get;
#X obj 718 552 myprepend2 send /sys/host/port/set;
#X msg 649 485 disconnect;
#X msg 734 598 send /sys/host/name/get;
#X obj 517 511 pack s f;
#X obj 517 537 myprepend connect;
#X obj 517 441 t a b;
#X obj 517 416 symbol;
#X obj 855 463 t a b;
#X msg 882 485 0;
#X obj 517 392 gate;
#X obj 882 508 send g;
#X obj 478 367 receive g;
#X obj 769 485 send g;
#X msg 769 463 1;
#X obj 718 439 t f b f b;
#X obj 538 341 route /sys/host/name /sys/host/port;
#X obj 855 530 send sndOsc;
#X obj 735 530 send getHostName;
#X obj 734 574 receive getHostName;
#X obj 752 508 send setHostPort;
#X obj 525 485 receive setHostPort;
#X msg 232 581 send /sys/host/port/get;
#X obj 241 510 send getHostPort;
#X obj 232 556 receive getHostPort;
#X obj 85 346 route /sys/host/port /sys/host/name;
#X obj 354 443 t a b;
#X msg 381 465 0;
#X obj 381 488 send g;
#X obj 354 510 send sndOsc;
#X msg 103 488 disconnect;
#X obj 38 488 pack s f;
#X obj 38 558 myprepend connect;
#X obj 64 395 gate;
#X obj 25 370 receive g;
#X obj 222 443 t s b b;
#X obj 261 488 send g;
#X msg 261 465 1;
#X obj 64 421 t b f b;
#X obj 38 465 symbol;
#X obj 20 443 delay 500;
#X msg 951 314 send /sys/host/ip/get;
#X obj 951 339 send sndOsc;
#X obj 951 368 receive rcvOsc;
#X obj 951 394 route /sys/host/ip;
#X symbolatom 951 443 20 0 0 0 - - -;
#X obj 951 418 myprepend set;
#X obj 1113 368 receive rcvOsc;
#X symbolatom 1113 443 20 0 0 0 - - -;
#X obj 1113 418 myprepend set;
#X obj 1113 394 route /sys/host/mac;
#X obj 1113 340 send sndOsc;
#X msg 1113 315 send /sys/host/mac/get;
#X obj 170 221 myprepend2 send /sys/remote/ip/set;
#X msg 18 221 send /sys/remote/ip/get;
#X obj 556 125 receive rcvOsc;
#X obj 556 150 route /sys/remote/port;
#X obj 556 174 myprepend set;
#X floatatom 556 198 5 0 0 0 - - -;
#X obj 556 221 myprepend2 send /sys/remote/port/set;
#X obj 556 247 send sndOsc;
#X msg 393 221 send /sys/remote/port/get;
#X obj 493 149 loadbang;
#X msg 493 174 set 8000;
#X obj 170 103 receive rcvOsc;
#X obj 170 152 myprepend set;
#X obj 170 128 route /sys/remote/ip;
#X obj 807 363 loadbang;
#X msg 807 388 set 8080;
#X obj 99 370 loadbang;
#X msg 99 395 set picrouter.local;
#X symbolatom 1100 176 20 0 0 0 - - -;
#X obj 1100 230 send sndOsc;
#X obj 1026 125 loadbang;
#X obj 1100 101 receive rcvOsc;
#X obj 1100 150 myprepend set;
#X msg 1026 150 set /std;
#X obj 1100 126 route /sys/prefix;
#X msg 966 202 send /sys/prefix/get;
#X obj 1100 202 myprepend2 send /sys/prefix/set;
#X text 647 171 After changing the remote port \, you need to modify
the port number of "dumpOSC" object in OSC_Comm (subpatch).;
#X text 1130 176 comment;
#X obj 996 663 popup 124 25 #ffffff device device host;
#X obj 759 735 popup 124 25 #ffffff normal normal bootloader;
#X obj 996 640 receive usbMode;
#X obj 759 712 receive softReset;
#N canvas 399 277 349 165 initPopup 0;
#X msg 19 95 0;
#X msg 27 17 loadbang;
#X obj 27 69 t b a b;
#X msg 166 95 0;
#X obj 174 69 t b a b;
#X obj 174 17 loadbang;
#X msg 27 44 options device host;
#X msg 66 95 name device;
#X obj 46 126 send usbMode;
#X msg 174 44 options normal bootloader;
#X msg 213 95 name normal;
#X obj 193 123 send softReset;
#X connect 0 0 8 0;
#X connect 1 0 6 0;
#X connect 2 0 0 0;
#X connect 2 1 8 0;
#X connect 2 2 7 0;
#X connect 3 0 11 0;
#X connect 4 0 3 0;
#X connect 4 1 11 0;
#X connect 4 2 10 0;
#X connect 5 0 9 0;
#X connect 6 0 2 0;
#X connect 7 0 8 0;
#X connect 9 0 4 0;
#X connect 10 0 11 0;
#X restore 116 38 pd initPopup;
#X msg 1113 614 off;
#X obj 1056 498 receive rcvOsc;
#X obj 1119 749 gate;
#X obj 1113 566 t b s b;
#X msg 1221 588 0;
#X obj 1221 665 t a;
#X msg 1113 718 1;
#X obj 1113 696 t b s;
#X obj 1056 543 unpack f s;
#X obj 1132 589 myprepend set;
#X obj 1113 638 myprepend symbol;
#X obj 1119 795 send sndOsc;
#X obj 759 774 myprepend2 send /sys/soft/reset;
#X obj 759 801 send sndOsc;
#X obj 1056 521 route /sys/usb/mode;
#X obj 1119 773 myprepend2 send /sys/usb/mode/switch;
#X msg 973 774 send /sys/usb/mode/get;
#X connect 0 0 73 0;
#X connect 3 0 0 0;
#X connect 4 0 3 0;
#X connect 5 0 15 0;
#X connect 5 1 6 0;
#X connect 8 0 45 0;
#X connect 9 0 55 0;
#X connect 9 0 59 1;
#X connect 10 0 12 0;
#X connect 11 0 46 0;
#X connect 13 0 9 0;
#X connect 16 0 36 0;
#X connect 17 0 18 0;
#X connect 18 0 35 0;
#X connect 20 0 28 0;
#X connect 21 0 19 0;
#X connect 22 0 19 0;
#X connect 23 0 19 0;
#X connect 24 0 25 0;
#X connect 25 0 19 0;
#X connect 26 0 24 0;
#X connect 26 1 22 0;
#X connect 27 0 26 0;
#X connect 28 0 37 0;
#X connect 28 1 29 0;
#X connect 29 0 31 0;
#X connect 30 0 27 0;
#X connect 32 0 30 0;
#X connect 34 0 33 0;
#X connect 35 0 21 0;
#X connect 35 1 38 0;
#X connect 35 2 40 0;
#X connect 35 3 34 0;
#X connect 36 0 30 1;
#X connect 36 1 17 0;
#X connect 39 0 23 0;
#X connect 41 0 24 1;
#X connect 42 0 12 0;
#X connect 44 0 42 0;
#X connect 45 0 53 1;
#X connect 45 1 13 0;
#X connect 46 0 49 0;
#X connect 46 1 47 0;
#X connect 47 0 48 0;
#X connect 50 0 12 0;
#X connect 51 0 52 0;
#X connect 52 0 12 0;
#X connect 53 0 58 0;
#X connect 54 0 53 0;
#X connect 55 0 10 0;
#X connect 55 1 43 0;
#X connect 55 2 57 0;
#X connect 57 0 56 0;
#X connect 58 0 60 0;
#X connect 58 1 51 1;
#X connect 58 2 50 0;
#X connect 59 0 51 0;
#X connect 60 0 59 0;
#X connect 61 0 62 0;
#X connect 63 0 64 0;
#X connect 64 0 66 0;
#X connect 66 0 65 0;
#X connect 67 0 70 0;
#X connect 69 0 68 0;
#X connect 70 0 69 0;
#X connect 72 0 71 0;
#X connect 73 0 1 0;
#X connect 74 0 1 0;
#X connect 75 0 76 0;
#X connect 76 0 77 0;
#X connect 77 0 78 0;
#X connect 78 0 79 0;
#X connect 79 0 80 0;
#X connect 81 0 80 0;
#X connect 82 0 83 0;
#X connect 83 0 78 0;
#X connect 84 0 86 0;
#X connect 85 0 0 0;
#X connect 86 0 85 0;
#X connect 87 0 88 0;
#X connect 88 0 18 0;
#X connect 89 0 90 0;
#X connect 90 0 9 0;
#X connect 91 0 99 0;
#X connect 93 0 96 0;
#X connect 94 0 97 0;
#X connect 95 0 91 0;
#X connect 96 0 91 0;
#X connect 97 0 95 0;
#X connect 98 0 92 0;
#X connect 99 0 92 0;
#X connect 102 1 114 0;
#X connect 103 1 119 0;
#X connect 104 0 102 0;
#X connect 105 0 103 0;
#X connect 107 0 117 0;
#X connect 108 0 121 0;
#X connect 109 0 122 0;
#X connect 110 0 107 0;
#X connect 110 1 116 0;
#X connect 110 2 111 0;
#X connect 111 0 112 0;
#X connect 112 0 109 0;
#X connect 113 0 109 0;
#X connect 114 0 113 0;
#X connect 114 1 109 1;
#X connect 115 1 110 0;
#X connect 116 0 107 0;
#X connect 117 0 102 1;
#X connect 119 0 120 0;
#X connect 121 0 115 0;
#X connect 122 0 118 0;
#X connect 123 0 118 0;
