#N canvas 166 22 485 830 10;
#X obj 166 223 list prepend;
#X obj 266 252 t a;
#X obj 166 252 route symbol;
#X obj 166 338 list length;
#X obj 166 392 until;
#X obj 308 453 f;
#X obj 338 453 + 1;
#X obj 136 73 route symbol;
#X obj 166 504 zl nth 0;
#X obj 166 478 zl reg;
#X obj 166 281 t l l b;
#X obj 323 315 int 0;
#X obj 166 417 t b b;
#X floatatom 166 365 5 0 0 0 - - -;
#X obj 166 555 select dammy;
#X obj 166 529 myprepend symbol;
#X msg 220 616 list;
#X obj 242 678 t a;
#X obj 151 642 list prepend;
#X obj 151 679 route symbol;
#X obj 27 711 zl reg;
#X obj 27 738 list;
#X obj 136 47 inlet;
#X obj 196 149 send refresh;
#X obj 220 590 receive refresh;
#X obj 181 173 send compare;
#X obj 272 529 receive compare;
#X obj 76 123 send result;
#X obj 27 654 receive result;
#X obj 226 100 send clear;
#X obj 235 194 receive clear;
#X obj 27 773 send clear;
#X obj 185 315 send original;
#X obj 199 453 receive original;
#X obj 100 773 outlet;
#X obj 226 48 inlet;
#X obj 136 99 t b s s s b a;
#X obj 211 125 send inSymbol;
#X obj 36 679 receive inSymbol;
#X connect 0 0 1 0;
#X connect 0 0 2 0;
#X connect 1 0 0 1;
#X connect 2 1 10 0;
#X connect 3 0 13 0;
#X connect 4 0 12 0;
#X connect 5 0 6 0;
#X connect 5 0 8 1;
#X connect 6 0 5 1;
#X connect 7 0 36 0;
#X connect 8 0 15 0;
#X connect 9 0 8 0;
#X connect 10 0 3 0;
#X connect 10 1 32 0;
#X connect 10 2 11 0;
#X connect 11 0 5 1;
#X connect 12 0 9 0;
#X connect 12 1 5 0;
#X connect 13 0 4 0;
#X connect 14 1 18 0;
#X connect 15 0 14 0;
#X connect 16 0 18 1;
#X connect 17 0 18 1;
#X connect 18 0 17 0;
#X connect 18 0 19 0;
#X connect 19 1 20 1;
#X connect 20 0 21 0;
#X connect 21 0 31 0;
#X connect 21 0 34 0;
#X connect 22 0 7 0;
#X connect 24 0 16 0;
#X connect 26 0 14 1;
#X connect 28 0 20 0;
#X connect 30 0 0 1;
#X connect 33 0 9 1;
#X connect 35 0 29 0;
#X connect 36 0 27 0;
#X connect 36 1 18 0;
#X connect 36 2 0 0;
#X connect 36 3 25 0;
#X connect 36 4 23 0;
#X connect 36 5 37 0;
#X connect 38 0 20 1;
