{
	"patcher" : 	{
		"fileversion" : 1,
		"rect" : [ 111.0, 72.0, 860.0, 427.0 ],
		"bglocked" : 0,
		"defrect" : [ 111.0, 72.0, 860.0, 427.0 ],
		"openrect" : [ 0.0, 0.0, 0.0, 0.0 ],
		"openinpresentation" : 0,
		"default_fontsize" : 12.0,
		"default_fontface" : 0,
		"default_fontname" : "Arial",
		"gridonopen" : 0,
		"gridsize" : [ 15.0, 15.0 ],
		"gridsnaponopen" : 0,
		"toolbarvisible" : 1,
		"boxanimatetime" : 200,
		"imprint" : 0,
		"metadata" : [  ],
		"boxes" : [ 			{
				"box" : 				{
					"maxclass" : "comment",
					"text" : "f(46) =   1836311903\r2^31-1= 2147483647\rf(47) =   2971215073",
					"linecount" : 3,
					"fontname" : "Arial",
					"patching_rect" : [ 446.068756, 221.910187, 163.0, 48.0 ],
					"fontsize" : 12.0,
					"frgb" : [ 0.0, 0.0, 0.0, 1.0 ],
					"numinlets" : 1,
					"numoutlets" : 0,
					"id" : "obj-1"
				}

			}
, 			{
				"box" : 				{
					"maxclass" : "message",
					"text" : "viewsource",
					"fontname" : "Arial",
					"patching_rect" : [ 212.617752, 256.898193, 75.0, 18.0 ],
					"fontsize" : 12.0,
					"numinlets" : 2,
					"numoutlets" : 1,
					"id" : "obj-2",
					"outlettype" : [ "" ]
				}

			}
, 			{
				"box" : 				{
					"maxclass" : "comment",
					"text" : "bbn \rc74",
					"linecount" : 2,
					"fontname" : "Arial",
					"patching_rect" : [ 817.798035, 349.664673, 37.0, 34.0 ],
					"fontsize" : 12.0,
					"frgb" : [ 0.0, 0.0, 0.0, 1.0 ],
					"numinlets" : 1,
					"numoutlets" : 0,
					"id" : "obj-3"
				}

			}
, 			{
				"box" : 				{
					"maxclass" : "number",
					"fontname" : "Arial",
					"triscale" : 0.9,
					"patching_rect" : [ 91.179207, 233.556885, 50.0, 20.0 ],
					"fontsize" : 12.0,
					"numinlets" : 1,
					"minimum" : 2,
					"numoutlets" : 2,
					"presentation_rect" : [ 0.0, 0.0, 50.0, 20.0 ],
					"id" : "obj-4",
					"outlettype" : [ "int", "bang" ]
				}

			}
, 			{
				"box" : 				{
					"maxclass" : "message",
					"text" : "radix $1",
					"fontname" : "Arial",
					"patching_rect" : [ 91.179207, 259.682648, 60.0, 18.0 ],
					"fontsize" : 12.0,
					"numinlets" : 2,
					"numoutlets" : 1,
					"id" : "obj-5",
					"outlettype" : [ "" ]
				}

			}
, 			{
				"box" : 				{
					"maxclass" : "comment",
					"text" : "The fibonacci mxj class uses the Java BigInteger class, which allows for math manipulations of integers of any size.  It outputs the requested element of the Fibonacci sequence as a symbol - note that this means the output cannot be used with regular max math operators.  The base of the number can be set with the radix attribute.   Default is base 10.  ",
					"linecount" : 4,
					"fontname" : "Arial",
					"patching_rect" : [ 336.077423, 281.766479, 512.0, 62.0 ],
					"fontsize" : 12.0,
					"frgb" : [ 0.0, 0.0, 0.0, 1.0 ],
					"numinlets" : 1,
					"numoutlets" : 0,
					"id" : "obj-6"
				}

			}
, 			{
				"box" : 				{
					"maxclass" : "comment",
					"text" : "very large number output as a symbol",
					"fontname" : "Arial",
					"patching_rect" : [ 62.221439, 367.443115, 304.0, 20.0 ],
					"fontsize" : 12.0,
					"frgb" : [ 0.0, 0.0, 0.0, 1.0 ],
					"numinlets" : 1,
					"numoutlets" : 0,
					"id" : "obj-7"
				}

			}
, 			{
				"box" : 				{
					"maxclass" : "comment",
					"text" : "The Fibonacci sequence f(n) is a recursive list of numbers that can be defined as follows for integers n > 0: \rf(1) = 1\rf(2) = 1\rf(n) = f(n-1)+f(n-2)\rSo each number in the sequence is found by adding the previous two numbers.  Starting at n=1 the first few elements of the sequence are \r1, 1, 2, 3, 5, 8, 13, 21, 34, 55, 89, 144, ...\r\rThe values in the sequence quickly get very large.  Because ints in Max are signed 32 bit integers, which can only represent values between -2^31 and 2^31-1, we can only accurately calculate the fibonacci sequence up to n=46 using standard Max objects.  Integers larger than 2^31-1 wrap around to -2^31and start counting up again.\r",
					"linecount" : 13,
					"fontname" : "Arial",
					"patching_rect" : [ 336.077423, 14.173653, 477.0, 186.0 ],
					"fontsize" : 12.0,
					"frgb" : [ 0.0, 0.0, 0.0, 1.0 ],
					"numinlets" : 1,
					"numoutlets" : 0,
					"id" : "obj-8"
				}

			}
, 			{
				"box" : 				{
					"maxclass" : "number",
					"fontname" : "Arial",
					"triscale" : 0.9,
					"patching_rect" : [ 314.752563, 247.730545, 99.0, 20.0 ],
					"fontsize" : 12.0,
					"numinlets" : 1,
					"numoutlets" : 2,
					"id" : "obj-9",
					"outlettype" : [ "int", "bang" ]
				}

			}
, 			{
				"box" : 				{
					"maxclass" : "message",
					"text" : "jam 0",
					"fontname" : "Arial",
					"patching_rect" : [ 28.550623, 137.407181, 40.0, 18.0 ],
					"fontsize" : 12.0,
					"numinlets" : 2,
					"numoutlets" : 1,
					"id" : "obj-10",
					"outlettype" : [ "" ]
				}

			}
, 			{
				"box" : 				{
					"maxclass" : "newobj",
					"text" : "p maxonacci",
					"fontname" : "Arial",
					"patching_rect" : [ 314.752563, 221.910187, 102.0, 20.0 ],
					"fontsize" : 12.0,
					"numinlets" : 1,
					"numoutlets" : 1,
					"id" : "obj-11",
					"outlettype" : [ "int" ],
					"patcher" : 					{
						"fileversion" : 1,
						"rect" : [ 9.0, 58.0, 203.0, 346.0 ],
						"bglocked" : 0,
						"defrect" : [ 9.0, 58.0, 203.0, 346.0 ],
						"openrect" : [ 0.0, 0.0, 0.0, 0.0 ],
						"openinpresentation" : 0,
						"default_fontsize" : 12.0,
						"default_fontface" : 0,
						"default_fontname" : "Arial",
						"gridonopen" : 0,
						"gridsize" : [ 15.0, 15.0 ],
						"gridsnaponopen" : 0,
						"toolbarvisible" : 1,
						"boxanimatetime" : 200,
						"imprint" : 0,
						"metadata" : [  ],
						"boxes" : [ 							{
								"box" : 								{
									"maxclass" : "newobj",
									"text" : "t 1 0",
									"fontname" : "Arial",
									"patching_rect" : [ 138.72316, 160.469193, 39.0, 20.0 ],
									"fontsize" : 12.0,
									"numinlets" : 1,
									"numoutlets" : 2,
									"color" : [ 0.8, 0.611765, 0.380392, 1.0 ],
									"id" : "obj-1",
									"outlettype" : [ "int", "int" ]
								}

							}
, 							{
								"box" : 								{
									"maxclass" : "outlet",
									"patching_rect" : [ 30.903955, 300.241699, 25.0, 25.0 ],
									"numinlets" : 1,
									"numoutlets" : 0,
									"id" : "obj-2",
									"comment" : ""
								}

							}
, 							{
								"box" : 								{
									"maxclass" : "newobj",
									"text" : "- 1",
									"fontname" : "Arial",
									"patching_rect" : [ 30.903955, 106.497627, 34.0, 20.0 ],
									"fontsize" : 12.0,
									"numinlets" : 2,
									"numoutlets" : 1,
									"id" : "obj-3",
									"outlettype" : [ "int" ]
								}

							}
, 							{
								"box" : 								{
									"maxclass" : "newobj",
									"text" : "t b b",
									"fontname" : "Arial",
									"patching_rect" : [ 30.903955, 160.469193, 55.0, 20.0 ],
									"fontsize" : 12.0,
									"numinlets" : 1,
									"numoutlets" : 2,
									"id" : "obj-4",
									"outlettype" : [ "bang", "bang" ]
								}

							}
, 							{
								"box" : 								{
									"maxclass" : "newobj",
									"text" : "int",
									"fontname" : "Arial",
									"patching_rect" : [ 64.401131, 237.966827, 32.0, 20.0 ],
									"fontsize" : 12.0,
									"numinlets" : 2,
									"numoutlets" : 1,
									"id" : "obj-5",
									"outlettype" : [ "int" ]
								}

							}
, 							{
								"box" : 								{
									"maxclass" : "newobj",
									"text" : "int",
									"fontname" : "Arial",
									"patching_rect" : [ 30.903955, 199.218002, 32.0, 20.0 ],
									"fontsize" : 12.0,
									"numinlets" : 2,
									"numoutlets" : 1,
									"id" : "obj-6",
									"outlettype" : [ "int" ]
								}

							}
, 							{
								"box" : 								{
									"maxclass" : "newobj",
									"text" : "+",
									"fontname" : "Arial",
									"patching_rect" : [ 30.903955, 268.412323, 52.5, 20.0 ],
									"fontsize" : 12.0,
									"numinlets" : 2,
									"numoutlets" : 1,
									"id" : "obj-7",
									"outlettype" : [ "int" ]
								}

							}
, 							{
								"box" : 								{
									"maxclass" : "newobj",
									"text" : "t i b",
									"fontname" : "Arial",
									"patching_rect" : [ 30.903955, 78.819908, 127.0, 20.0 ],
									"fontsize" : 12.0,
									"numinlets" : 1,
									"numoutlets" : 2,
									"id" : "obj-8",
									"outlettype" : [ "int", "bang" ]
								}

							}
, 							{
								"box" : 								{
									"maxclass" : "newobj",
									"text" : "uzi",
									"fontname" : "Arial",
									"patching_rect" : [ 30.903955, 132.791473, 48.0, 20.0 ],
									"fontsize" : 12.0,
									"numinlets" : 2,
									"numoutlets" : 3,
									"id" : "obj-9",
									"outlettype" : [ "bang", "bang", "int" ]
								}

							}
, 							{
								"box" : 								{
									"maxclass" : "number",
									"fontname" : "Arial",
									"triscale" : 0.9,
									"patching_rect" : [ 30.903955, 51.909954, 72.0, 20.0 ],
									"fontsize" : 12.0,
									"numinlets" : 1,
									"htextcolor" : [ 0.870588, 0.870588, 0.870588, 1.0 ],
									"numoutlets" : 2,
									"bgcolor" : [ 0.866667, 0.866667, 0.866667, 1.0 ],
									"id" : "obj-10",
									"outlettype" : [ "int", "bang" ]
								}

							}
, 							{
								"box" : 								{
									"maxclass" : "inlet",
									"patching_rect" : [ 30.903955, 14.0, 25.0, 25.0 ],
									"numinlets" : 0,
									"numoutlets" : 1,
									"id" : "obj-11",
									"outlettype" : [ "int" ],
									"comment" : ""
								}

							}
 ],
						"lines" : [ 							{
								"patchline" : 								{
									"source" : [ "obj-6", 0 ],
									"destination" : [ "obj-5", 1 ],
									"hidden" : 0,
									"midpoints" : [  ]
								}

							}
, 							{
								"patchline" : 								{
									"source" : [ "obj-11", 0 ],
									"destination" : [ "obj-10", 0 ],
									"hidden" : 0,
									"midpoints" : [  ]
								}

							}
, 							{
								"patchline" : 								{
									"source" : [ "obj-10", 0 ],
									"destination" : [ "obj-8", 0 ],
									"hidden" : 0,
									"midpoints" : [  ]
								}

							}
, 							{
								"patchline" : 								{
									"source" : [ "obj-8", 0 ],
									"destination" : [ "obj-3", 0 ],
									"hidden" : 0,
									"midpoints" : [  ]
								}

							}
, 							{
								"patchline" : 								{
									"source" : [ "obj-3", 0 ],
									"destination" : [ "obj-9", 0 ],
									"hidden" : 0,
									"midpoints" : [  ]
								}

							}
, 							{
								"patchline" : 								{
									"source" : [ "obj-9", 0 ],
									"destination" : [ "obj-4", 0 ],
									"hidden" : 0,
									"midpoints" : [  ]
								}

							}
, 							{
								"patchline" : 								{
									"source" : [ "obj-4", 0 ],
									"destination" : [ "obj-6", 0 ],
									"hidden" : 0,
									"midpoints" : [  ]
								}

							}
, 							{
								"patchline" : 								{
									"source" : [ "obj-6", 0 ],
									"destination" : [ "obj-7", 0 ],
									"hidden" : 0,
									"midpoints" : [  ]
								}

							}
, 							{
								"patchline" : 								{
									"source" : [ "obj-7", 0 ],
									"destination" : [ "obj-2", 0 ],
									"hidden" : 0,
									"midpoints" : [  ]
								}

							}
, 							{
								"patchline" : 								{
									"source" : [ "obj-7", 0 ],
									"destination" : [ "obj-6", 1 ],
									"hidden" : 0,
									"midpoints" : [ 40.403954, 296.090057, 22.61017, 296.090057, 22.61017, 195.066345, 53.403954, 195.066345 ]
								}

							}
, 							{
								"patchline" : 								{
									"source" : [ "obj-1", 0 ],
									"destination" : [ "obj-6", 1 ],
									"hidden" : 0,
									"color" : [ 0.8, 0.611765, 0.380392, 1.0 ],
									"midpoints" : [  ]
								}

							}
, 							{
								"patchline" : 								{
									"source" : [ "obj-4", 1 ],
									"destination" : [ "obj-5", 0 ],
									"hidden" : 0,
									"midpoints" : [  ]
								}

							}
, 							{
								"patchline" : 								{
									"source" : [ "obj-5", 0 ],
									"destination" : [ "obj-7", 1 ],
									"hidden" : 0,
									"midpoints" : [  ]
								}

							}
, 							{
								"patchline" : 								{
									"source" : [ "obj-1", 1 ],
									"destination" : [ "obj-5", 1 ],
									"hidden" : 0,
									"color" : [ 0.8, 0.611765, 0.380392, 1.0 ],
									"midpoints" : [  ]
								}

							}
, 							{
								"patchline" : 								{
									"source" : [ "obj-8", 1 ],
									"destination" : [ "obj-1", 0 ],
									"hidden" : 0,
									"color" : [ 0.8, 0.611765, 0.380392, 1.0 ],
									"midpoints" : [  ]
								}

							}
 ]
					}
,
					"saved_object_attributes" : 					{
						"fontname" : "Arial",
						"default_fontname" : "Arial",
						"globalpatchername" : "",
						"default_fontsize" : 12.0,
						"fontface" : 0,
						"fontsize" : 12.0,
						"default_fontface" : 0
					}

				}

			}
, 			{
				"box" : 				{
					"maxclass" : "comment",
					"text" : "an example of how to use java to beat the 32 bit blues",
					"linecount" : 2,
					"fontname" : "Arial",
					"patching_rect" : [ 43.0, 52.0, 161.0, 34.0 ],
					"fontsize" : 12.0,
					"frgb" : [ 0.0, 0.0, 0.0, 1.0 ],
					"numinlets" : 1,
					"numoutlets" : 0,
					"id" : "obj-12"
				}

			}
, 			{
				"box" : 				{
					"maxclass" : "newobj",
					"text" : "/ 100",
					"fontname" : "Arial",
					"patching_rect" : [ 28.550623, 220.736526, 43.0, 20.0 ],
					"fontsize" : 12.0,
					"numinlets" : 2,
					"numoutlets" : 1,
					"id" : "obj-13",
					"outlettype" : [ "int" ]
				}

			}
, 			{
				"box" : 				{
					"maxclass" : "number",
					"fontname" : "Arial",
					"triscale" : 0.9,
					"patching_rect" : [ 114.972389, 112.760483, 50.0, 20.0 ],
					"fontsize" : 12.0,
					"numinlets" : 1,
					"numoutlets" : 2,
					"id" : "obj-14",
					"outlettype" : [ "int", "bang" ]
				}

			}
, 			{
				"box" : 				{
					"maxclass" : "toggle",
					"patching_rect" : [ 70.077965, 112.760483, 20.0, 20.0 ],
					"numinlets" : 1,
					"numoutlets" : 1,
					"id" : "obj-15",
					"outlettype" : [ "int" ]
				}

			}
, 			{
				"box" : 				{
					"maxclass" : "newobj",
					"text" : "qmetro 5",
					"fontname" : "Arial",
					"patching_rect" : [ 70.077965, 136.233536, 64.0, 20.0 ],
					"fontsize" : 12.0,
					"numinlets" : 2,
					"numoutlets" : 1,
					"id" : "obj-16",
					"outlettype" : [ "bang" ]
				}

			}
, 			{
				"box" : 				{
					"maxclass" : "newobj",
					"text" : "counter 9999",
					"fontname" : "Arial",
					"patching_rect" : [ 70.077965, 162.053894, 91.0, 20.0 ],
					"fontsize" : 12.0,
					"numinlets" : 5,
					"numoutlets" : 4,
					"id" : "obj-17",
					"outlettype" : [ "int", "", "", "int" ]
				}

			}
, 			{
				"box" : 				{
					"maxclass" : "number",
					"fontname" : "Arial",
					"triscale" : 0.9,
					"patching_rect" : [ 70.077965, 190.221558, 58.0, 20.0 ],
					"fontface" : 1,
					"fontsize" : 12.0,
					"numinlets" : 1,
					"minimum" : 1,
					"numoutlets" : 2,
					"id" : "obj-19",
					"outlettype" : [ "int", "bang" ]
				}

			}
, 			{
				"box" : 				{
					"maxclass" : "newobj",
					"text" : "mxj fibonacci",
					"fontname" : "Arial",
					"patching_rect" : [ 70.077965, 294.676636, 126.0, 27.0 ],
					"fontsize" : 18.0,
					"numinlets" : 1,
					"numoutlets" : 2,
					"id" : "obj-20",
					"outlettype" : [ "", "" ]
				}

			}
, 			{
				"box" : 				{
					"maxclass" : "comment",
					"text" : "fibonacci",
					"fontname" : "Arial",
					"patching_rect" : [ 43.0, 23.0, 100.0, 27.0 ],
					"fontsize" : 18.0,
					"frgb" : [ 0.0, 0.0, 0.0, 1.0 ],
					"numinlets" : 1,
					"numoutlets" : 0,
					"id" : "obj-21"
				}

			}
, 			{
				"box" : 				{
					"maxclass" : "comment",
					"text" : "index number in",
					"fontname" : "Arial",
					"patching_rect" : [ 128.44072, 191.395203, 104.0, 20.0 ],
					"fontsize" : 12.0,
					"frgb" : [ 0.0, 0.0, 0.0, 1.0 ],
					"numinlets" : 1,
					"numoutlets" : 0,
					"id" : "obj-22"
				}

			}
, 			{
				"box" : 				{
					"maxclass" : "comment",
					"text" : "i love mxj",
					"linecount" : 3,
					"fontname" : "Arial",
					"patching_rect" : [ 205.0, 55.0, 34.0, 48.0 ],
					"fontsize" : 12.0,
					"frgb" : [ 0.0, 0.0, 0.0, 1.0 ],
					"numinlets" : 1,
					"numoutlets" : 0,
					"id" : "obj-23"
				}

			}
, 			{
				"box" : 				{
					"maxclass" : "fpic",
					"patching_rect" : [ 227.20845, 13.0, 83.0, 99.0 ],
					"pic" : "fibonacci.jpg",
					"numinlets" : 1,
					"numoutlets" : 0,
					"id" : "obj-24"
				}

			}
, 			{
				"box" : 				{
					"maxclass" : "message",
					"text" : "\"74938658661142424746936931013871484819301255773627024651689719443505027723135990224027850523592585\"",
					"fontname" : "Arial",
					"patching_rect" : [ 24.06118, 391.874237, 756.0, 18.0 ],
					"fontsize" : 12.0,
					"numinlets" : 2,
					"numoutlets" : 1,
					"id" : "obj-25",
					"outlettype" : [ "" ]
				}

			}
 ],
		"lines" : [ 			{
				"patchline" : 				{
					"source" : [ "obj-20", 0 ],
					"destination" : [ "obj-25", 1 ],
					"hidden" : 0,
					"midpoints" : [ 79.577965, 361.0, 770.561157, 361.0 ]
				}

			}
, 			{
				"patchline" : 				{
					"source" : [ "obj-19", 0 ],
					"destination" : [ "obj-13", 0 ],
					"hidden" : 0,
					"midpoints" : [ 79.577965, 213.694611, 38.050621, 213.694611 ]
				}

			}
, 			{
				"patchline" : 				{
					"source" : [ "obj-15", 0 ],
					"destination" : [ "obj-16", 0 ],
					"hidden" : 0,
					"midpoints" : [  ]
				}

			}
, 			{
				"patchline" : 				{
					"source" : [ "obj-10", 0 ],
					"destination" : [ "obj-17", 0 ],
					"hidden" : 0,
					"midpoints" : [ 38.050621, 158.532928, 79.577965, 158.532928 ]
				}

			}
, 			{
				"patchline" : 				{
					"source" : [ "obj-16", 0 ],
					"destination" : [ "obj-17", 0 ],
					"hidden" : 0,
					"midpoints" : [  ]
				}

			}
, 			{
				"patchline" : 				{
					"source" : [ "obj-17", 0 ],
					"destination" : [ "obj-19", 0 ],
					"hidden" : 0,
					"midpoints" : [  ]
				}

			}
, 			{
				"patchline" : 				{
					"source" : [ "obj-19", 0 ],
					"destination" : [ "obj-20", 0 ],
					"hidden" : 0,
					"midpoints" : [  ]
				}

			}
, 			{
				"patchline" : 				{
					"source" : [ "obj-5", 0 ],
					"destination" : [ "obj-20", 0 ],
					"hidden" : 0,
					"midpoints" : [ 100.679207, 288.80838, 79.577965, 288.80838 ]
				}

			}
, 			{
				"patchline" : 				{
					"source" : [ "obj-2", 0 ],
					"destination" : [ "obj-20", 0 ],
					"hidden" : 0,
					"midpoints" : [ 222.117752, 288.0, 79.577965, 288.0 ]
				}

			}
, 			{
				"patchline" : 				{
					"source" : [ "obj-4", 0 ],
					"destination" : [ "obj-5", 0 ],
					"hidden" : 0,
					"midpoints" : [  ]
				}

			}
, 			{
				"patchline" : 				{
					"source" : [ "obj-13", 0 ],
					"destination" : [ "obj-14", 0 ],
					"hidden" : 0,
					"midpoints" : [ 38.050621, 244.209579, 25.18354, 244.209579, 25.18354, 106.892212, 124.472389, 106.892212 ]
				}

			}
, 			{
				"patchline" : 				{
					"source" : [ "obj-14", 0 ],
					"destination" : [ "obj-16", 1 ],
					"hidden" : 0,
					"midpoints" : [  ]
				}

			}
, 			{
				"patchline" : 				{
					"source" : [ "obj-19", 0 ],
					"destination" : [ "obj-11", 0 ],
					"hidden" : 0,
					"midpoints" : [ 79.577965, 213.694611, 324.252563, 213.694611 ]
				}

			}
, 			{
				"patchline" : 				{
					"source" : [ "obj-11", 0 ],
					"destination" : [ "obj-9", 0 ],
					"hidden" : 0,
					"midpoints" : [  ]
				}

			}
 ]
	}

}
