{
	"patcher" : 	{
		"fileversion" : 1,
		"rect" : [ 67.0, 161.0, 481.0, 219.0 ],
		"bglocked" : 0,
		"defrect" : [ 67.0, 161.0, 481.0, 219.0 ],
		"openrect" : [ 0.0, 0.0, 0.0, 0.0 ],
		"openinpresentation" : 0,
		"default_fontsize" : 12.0,
		"default_fontface" : 0,
		"default_fontname" : "Arial",
		"gridonopen" : 0,
		"gridsize" : [ 15.0, 15.0 ],
		"gridsnaponopen" : 0,
		"toolbarvisible" : 1,
		"boxanimatetime" : 200,
		"imprint" : 0,
		"metadata" : [  ],
		"boxes" : [ 			{
				"box" : 				{
					"maxclass" : "message",
					"text" : "listpackage",
					"fontname" : "Arial",
					"numinlets" : 2,
					"patching_rect" : [ 396.0, 188.0, 76.0, 18.0 ],
					"numoutlets" : 1,
					"fontsize" : 12.0,
					"outlettype" : [ "" ],
					"id" : "obj-1"
				}

			}
, 			{
				"box" : 				{
					"maxclass" : "newobj",
					"text" : "prepend help",
					"fontname" : "Arial",
					"numinlets" : 1,
					"patching_rect" : [ 396.0, 214.419342, 83.0, 20.0 ],
					"numoutlets" : 1,
					"hidden" : 1,
					"fontsize" : 12.0,
					"outlettype" : [ "" ],
					"id" : "obj-2"
				}

			}
, 			{
				"box" : 				{
					"maxclass" : "newobj",
					"text" : "pcontrol",
					"fontname" : "Arial",
					"numinlets" : 1,
					"patching_rect" : [ 396.0, 240.838715, 56.0, 20.0 ],
					"numoutlets" : 1,
					"hidden" : 1,
					"fontsize" : 12.0,
					"outlettype" : [ "" ],
					"id" : "obj-3"
				}

			}
, 			{
				"box" : 				{
					"maxclass" : "comment",
					"text" : "see other list operators",
					"fontname" : "Arial",
					"numinlets" : 1,
					"patching_rect" : [ 268.0, 188.0, 151.0, 20.0 ],
					"numoutlets" : 0,
					"fontsize" : 12.0,
					"frgb" : [ 0.0, 0.0, 0.0, 1.0 ],
					"id" : "obj-4"
				}

			}
, 			{
				"box" : 				{
					"maxclass" : "number",
					"fontname" : "Arial",
					"numinlets" : 1,
					"patching_rect" : [ 201.0, 99.336205, 50.0, 20.0 ],
					"numoutlets" : 2,
					"fontsize" : 12.0,
					"outlettype" : [ "int", "bang" ],
					"id" : "obj-5"
				}

			}
, 			{
				"box" : 				{
					"maxclass" : "number",
					"fontname" : "Arial",
					"numinlets" : 1,
					"patching_rect" : [ 28.0, 72.0, 50.0, 20.0 ],
					"numoutlets" : 2,
					"fontsize" : 12.0,
					"outlettype" : [ "int", "bang" ],
					"id" : "obj-6"
				}

			}
, 			{
				"box" : 				{
					"maxclass" : "message",
					"text" : "iterate $1",
					"fontname" : "Arial",
					"numinlets" : 2,
					"patching_rect" : [ 28.0, 95.431038, 71.0, 18.0 ],
					"numoutlets" : 1,
					"fontsize" : 12.0,
					"outlettype" : [ "" ],
					"id" : "obj-7"
				}

			}
, 			{
				"box" : 				{
					"maxclass" : "comment",
					"text" : "repeat a list N times (N can be negative)",
					"fontname" : "Arial",
					"numinlets" : 1,
					"patching_rect" : [ 24.0, 34.0, 301.0, 20.0 ],
					"numoutlets" : 0,
					"fontsize" : 12.0,
					"frgb" : [ 0.0, 0.0, 0.0, 1.0 ],
					"id" : "obj-8"
				}

			}
, 			{
				"box" : 				{
					"maxclass" : "comment",
					"text" : "list.Replicate",
					"fontname" : "Arial",
					"numinlets" : 1,
					"patching_rect" : [ 24.0, 11.0, 153.0, 27.0 ],
					"numoutlets" : 0,
					"fontsize" : 18.0,
					"frgb" : [ 0.0, 0.0, 0.0, 1.0 ],
					"id" : "obj-9"
				}

			}
, 			{
				"box" : 				{
					"maxclass" : "message",
					"text" : "highs 17 to 23 degrees",
					"fontname" : "Arial",
					"numinlets" : 2,
					"patching_rect" : [ 109.0, 72.0, 163.0, 18.0 ],
					"numoutlets" : 1,
					"fontsize" : 12.0,
					"outlettype" : [ "" ],
					"id" : "obj-10"
				}

			}
, 			{
				"box" : 				{
					"maxclass" : "newobj",
					"text" : "print Replicate",
					"fontname" : "Arial",
					"numinlets" : 1,
					"patching_rect" : [ 109.0, 160.517242, 95.0, 20.0 ],
					"numoutlets" : 0,
					"fontsize" : 12.0,
					"id" : "obj-11"
				}

			}
, 			{
				"box" : 				{
					"maxclass" : "newobj",
					"text" : "mxj list.Replicate 3",
					"fontname" : "Arial",
					"numinlets" : 2,
					"patching_rect" : [ 109.0, 126.672417, 111.0, 20.0 ],
					"numoutlets" : 2,
					"fontsize" : 12.0,
					"outlettype" : [ "", "" ],
					"id" : "obj-12"
				}

			}
, 			{
				"box" : 				{
					"maxclass" : "comment",
					"text" : "optional argument sets howMany (default 1)",
					"fontname" : "Arial",
					"numinlets" : 1,
					"patching_rect" : [ 225.0, 127.370689, 244.0, 20.0 ],
					"numoutlets" : 0,
					"fontsize" : 12.0,
					"frgb" : [ 0.0, 0.0, 0.0, 1.0 ],
					"id" : "obj-13"
				}

			}
 ],
		"lines" : [ 			{
				"patchline" : 				{
					"source" : [ "obj-6", 0 ],
					"destination" : [ "obj-7", 0 ],
					"hidden" : 0,
					"midpoints" : [  ]
				}

			}
, 			{
				"patchline" : 				{
					"source" : [ "obj-5", 0 ],
					"destination" : [ "obj-12", 1 ],
					"hidden" : 0,
					"midpoints" : [  ]
				}

			}
, 			{
				"patchline" : 				{
					"source" : [ "obj-1", 0 ],
					"destination" : [ "obj-2", 0 ],
					"hidden" : 1,
					"midpoints" : [  ]
				}

			}
, 			{
				"patchline" : 				{
					"source" : [ "obj-2", 0 ],
					"destination" : [ "obj-3", 0 ],
					"hidden" : 1,
					"midpoints" : [  ]
				}

			}
, 			{
				"patchline" : 				{
					"source" : [ "obj-7", 0 ],
					"destination" : [ "obj-12", 0 ],
					"hidden" : 0,
					"midpoints" : [ 37.5, 122.767242, 118.5, 122.767242 ]
				}

			}
, 			{
				"patchline" : 				{
					"source" : [ "obj-10", 0 ],
					"destination" : [ "obj-12", 0 ],
					"hidden" : 0,
					"midpoints" : [  ]
				}

			}
, 			{
				"patchline" : 				{
					"source" : [ "obj-12", 0 ],
					"destination" : [ "obj-11", 0 ],
					"hidden" : 0,
					"midpoints" : [  ]
				}

			}
 ]
	}

}
