{
	"patcher" : 	{
		"fileversion" : 1,
		"rect" : [ 181.0, 204.0, 434.0, 225.0 ],
		"bglocked" : 0,
		"defrect" : [ 181.0, 204.0, 434.0, 225.0 ],
		"openrect" : [ 0.0, 0.0, 0.0, 0.0 ],
		"openinpresentation" : 0,
		"default_fontsize" : 12.0,
		"default_fontface" : 0,
		"default_fontname" : "Arial",
		"gridonopen" : 0,
		"gridsize" : [ 15.0, 15.0 ],
		"gridsnaponopen" : 0,
		"toolbarvisible" : 1,
		"boxanimatetime" : 200,
		"imprint" : 0,
		"metadata" : [  ],
		"boxes" : [ 			{
				"box" : 				{
					"maxclass" : "message",
					"text" : "listpackage",
					"fontname" : "Arial",
					"numinlets" : 2,
					"patching_rect" : [ 346.0, 193.0, 76.0, 18.0 ],
					"numoutlets" : 1,
					"fontsize" : 12.0,
					"outlettype" : [ "" ],
					"id" : "obj-1"
				}

			}
, 			{
				"box" : 				{
					"maxclass" : "newobj",
					"text" : "prepend help",
					"fontname" : "Arial",
					"numinlets" : 1,
					"patching_rect" : [ 346.0, 219.419342, 83.0, 20.0 ],
					"numoutlets" : 1,
					"hidden" : 1,
					"fontsize" : 12.0,
					"outlettype" : [ "" ],
					"id" : "obj-2"
				}

			}
, 			{
				"box" : 				{
					"maxclass" : "newobj",
					"text" : "pcontrol",
					"fontname" : "Arial",
					"numinlets" : 1,
					"patching_rect" : [ 346.0, 245.838715, 56.0, 20.0 ],
					"numoutlets" : 1,
					"hidden" : 1,
					"fontsize" : 12.0,
					"outlettype" : [ "" ],
					"id" : "obj-3"
				}

			}
, 			{
				"box" : 				{
					"maxclass" : "comment",
					"text" : "see other list operators",
					"fontname" : "Arial",
					"numinlets" : 1,
					"patching_rect" : [ 218.0, 193.0, 151.0, 20.0 ],
					"numoutlets" : 0,
					"fontsize" : 12.0,
					"frgb" : [ 0.0, 0.0, 0.0, 1.0 ],
					"id" : "obj-4"
				}

			}
, 			{
				"box" : 				{
					"maxclass" : "comment",
					"text" : "outputs the elements of the left list according to the indices in the right list",
					"fontname" : "Arial",
					"numinlets" : 1,
					"patching_rect" : [ 9.0, 33.0, 399.0, 20.0 ],
					"numoutlets" : 0,
					"fontsize" : 12.0,
					"frgb" : [ 0.0, 0.0, 0.0, 1.0 ],
					"id" : "obj-5"
				}

			}
, 			{
				"box" : 				{
					"maxclass" : "comment",
					"text" : "list.Position",
					"fontname" : "Arial",
					"numinlets" : 1,
					"patching_rect" : [ 9.0, 8.0, 105.0, 27.0 ],
					"numoutlets" : 0,
					"fontsize" : 18.0,
					"frgb" : [ 0.0, 0.0, 0.0, 1.0 ],
					"id" : "obj-6"
				}

			}
, 			{
				"box" : 				{
					"maxclass" : "newobj",
					"text" : "print Position",
					"fontname" : "Arial",
					"numinlets" : 1,
					"patching_rect" : [ 183.863647, 155.686279, 78.0, 20.0 ],
					"numoutlets" : 0,
					"fontsize" : 12.0,
					"id" : "obj-7"
				}

			}
, 			{
				"box" : 				{
					"maxclass" : "message",
					"text" : "0 2 4 3 1",
					"fontname" : "Arial",
					"numinlets" : 2,
					"patching_rect" : [ 320.960236, 89.0, 57.0, 18.0 ],
					"numoutlets" : 1,
					"fontsize" : 12.0,
					"outlettype" : [ "" ],
					"id" : "obj-8"
				}

			}
, 			{
				"box" : 				{
					"maxclass" : "message",
					"text" : "4 3 2 1 0",
					"fontname" : "Arial",
					"numinlets" : 2,
					"patching_rect" : [ 258.625, 89.0, 57.0, 18.0 ],
					"numoutlets" : 1,
					"fontsize" : 12.0,
					"outlettype" : [ "" ],
					"id" : "obj-9"
				}

			}
, 			{
				"box" : 				{
					"maxclass" : "message",
					"text" : "0 1 2 3 4",
					"fontname" : "Arial",
					"numinlets" : 2,
					"patching_rect" : [ 196.289795, 89.0, 57.0, 18.0 ],
					"numoutlets" : 1,
					"fontsize" : 12.0,
					"outlettype" : [ "" ],
					"id" : "obj-10"
				}

			}
, 			{
				"box" : 				{
					"maxclass" : "message",
					"text" : "a b c d e",
					"fontname" : "Arial",
					"numinlets" : 2,
					"patching_rect" : [ 112.193176, 88.098038, 66.0, 18.0 ],
					"numoutlets" : 1,
					"fontsize" : 12.0,
					"outlettype" : [ "" ],
					"id" : "obj-11"
				}

			}
, 			{
				"box" : 				{
					"maxclass" : "button",
					"numinlets" : 1,
					"patching_rect" : [ 83.67614, 88.098038, 20.0, 20.0 ],
					"numoutlets" : 1,
					"outlettype" : [ "bang" ],
					"id" : "obj-12"
				}

			}
, 			{
				"box" : 				{
					"maxclass" : "number",
					"fontname" : "Arial",
					"numinlets" : 1,
					"patching_rect" : [ 9.0, 64.647064, 50.0, 20.0 ],
					"numoutlets" : 2,
					"fontsize" : 12.0,
					"outlettype" : [ "int", "bang" ],
					"id" : "obj-13"
				}

			}
, 			{
				"box" : 				{
					"maxclass" : "message",
					"text" : "iterate $1",
					"fontname" : "Arial",
					"numinlets" : 2,
					"patching_rect" : [ 9.0, 90.529411, 71.0, 18.0 ],
					"numoutlets" : 1,
					"fontsize" : 12.0,
					"outlettype" : [ "" ],
					"id" : "obj-14"
				}

			}
, 			{
				"box" : 				{
					"maxclass" : "newobj",
					"text" : "mxj list.Position",
					"fontname" : "Arial",
					"numinlets" : 2,
					"patching_rect" : [ 183.863647, 125.568626, 94.0, 20.0 ],
					"numoutlets" : 2,
					"fontsize" : 12.0,
					"outlettype" : [ "", "" ],
					"id" : "obj-15"
				}

			}
 ],
		"lines" : [ 			{
				"patchline" : 				{
					"source" : [ "obj-1", 0 ],
					"destination" : [ "obj-2", 0 ],
					"hidden" : 1,
					"midpoints" : [  ]
				}

			}
, 			{
				"patchline" : 				{
					"source" : [ "obj-2", 0 ],
					"destination" : [ "obj-3", 0 ],
					"hidden" : 1,
					"midpoints" : [  ]
				}

			}
, 			{
				"patchline" : 				{
					"source" : [ "obj-13", 0 ],
					"destination" : [ "obj-14", 0 ],
					"hidden" : 0,
					"midpoints" : [  ]
				}

			}
, 			{
				"patchline" : 				{
					"source" : [ "obj-12", 0 ],
					"destination" : [ "obj-15", 0 ],
					"hidden" : 0,
					"midpoints" : [ 93.17614, 117.274521, 193.363647, 117.274521 ]
				}

			}
, 			{
				"patchline" : 				{
					"source" : [ "obj-14", 0 ],
					"destination" : [ "obj-15", 0 ],
					"hidden" : 0,
					"midpoints" : [ 18.5, 117.274521, 193.363647, 117.274521 ]
				}

			}
, 			{
				"patchline" : 				{
					"source" : [ "obj-11", 0 ],
					"destination" : [ "obj-15", 0 ],
					"hidden" : 0,
					"midpoints" : [ 121.693176, 117.274521, 193.363647, 117.274521 ]
				}

			}
, 			{
				"patchline" : 				{
					"source" : [ "obj-15", 0 ],
					"destination" : [ "obj-7", 0 ],
					"hidden" : 0,
					"midpoints" : [  ]
				}

			}
, 			{
				"patchline" : 				{
					"source" : [ "obj-10", 0 ],
					"destination" : [ "obj-15", 1 ],
					"hidden" : 0,
					"midpoints" : [ 205.789795, 117.117645, 268.363647, 117.117645 ]
				}

			}
, 			{
				"patchline" : 				{
					"source" : [ "obj-9", 0 ],
					"destination" : [ "obj-15", 1 ],
					"hidden" : 0,
					"midpoints" : [ 268.125, 117.117645, 268.363647, 117.117645 ]
				}

			}
, 			{
				"patchline" : 				{
					"source" : [ "obj-8", 0 ],
					"destination" : [ "obj-15", 1 ],
					"hidden" : 0,
					"midpoints" : [ 330.460236, 117.117645, 268.363647, 117.117645 ]
				}

			}
 ]
	}

}
