{
	"patcher" : 	{
		"fileversion" : 1,
		"rect" : [ 86.0, 77.0, 526.0, 549.0 ],
		"bglocked" : 0,
		"defrect" : [ 86.0, 77.0, 526.0, 549.0 ],
		"openrect" : [ 0.0, 0.0, 0.0, 0.0 ],
		"openinpresentation" : 0,
		"default_fontsize" : 12.0,
		"default_fontface" : 0,
		"default_fontname" : "Arial",
		"gridonopen" : 0,
		"gridsize" : [ 15.0, 15.0 ],
		"gridsnaponopen" : 0,
		"toolbarvisible" : 1,
		"boxanimatetime" : 200,
		"imprint" : 0,
		"metadata" : [  ],
		"boxes" : [ 			{
				"box" : 				{
					"maxclass" : "message",
					"text" : "listpackage",
					"fontname" : "Arial",
					"numinlets" : 2,
					"patching_rect" : [ 438.0, 519.0, 76.0, 18.0 ],
					"numoutlets" : 1,
					"fontsize" : 12.0,
					"outlettype" : [ "" ],
					"id" : "obj-1"
				}

			}
, 			{
				"box" : 				{
					"maxclass" : "newobj",
					"text" : "prepend help",
					"fontname" : "Arial",
					"numinlets" : 1,
					"patching_rect" : [ 438.0, 545.419312, 83.0, 20.0 ],
					"numoutlets" : 1,
					"hidden" : 1,
					"fontsize" : 12.0,
					"outlettype" : [ "" ],
					"id" : "obj-2"
				}

			}
, 			{
				"box" : 				{
					"maxclass" : "newobj",
					"text" : "pcontrol",
					"fontname" : "Arial",
					"numinlets" : 1,
					"patching_rect" : [ 438.0, 571.838745, 56.0, 20.0 ],
					"numoutlets" : 1,
					"hidden" : 1,
					"fontsize" : 12.0,
					"outlettype" : [ "" ],
					"id" : "obj-3"
				}

			}
, 			{
				"box" : 				{
					"maxclass" : "comment",
					"text" : "see other list operators",
					"fontname" : "Arial",
					"numinlets" : 1,
					"patching_rect" : [ 310.0, 519.0, 151.0, 20.0 ],
					"numoutlets" : 0,
					"fontsize" : 12.0,
					"frgb" : [ 0.0, 0.0, 0.0, 1.0 ],
					"id" : "obj-4"
				}

			}
, 			{
				"box" : 				{
					"maxclass" : "comment",
					"text" : "how long is the queue?",
					"fontname" : "Arial",
					"numinlets" : 1,
					"patching_rect" : [ 195.194687, 290.388489, 159.0, 20.0 ],
					"numoutlets" : 0,
					"fontsize" : 12.0,
					"frgb" : [ 0.0, 0.0, 0.0, 1.0 ],
					"id" : "obj-5"
				}

			}
, 			{
				"box" : 				{
					"maxclass" : "comment",
					"text" : "shuffles the queue",
					"fontname" : "Arial",
					"numinlets" : 1,
					"patching_rect" : [ 195.194687, 219.021576, 156.0, 20.0 ],
					"numoutlets" : 0,
					"fontsize" : 12.0,
					"frgb" : [ 0.0, 0.0, 0.0, 1.0 ],
					"id" : "obj-6"
				}

			}
, 			{
				"box" : 				{
					"maxclass" : "message",
					"text" : "shuffle",
					"fontname" : "Arial",
					"numinlets" : 2,
					"patching_rect" : [ 142.584076, 217.870499, 47.0, 18.0 ],
					"numoutlets" : 1,
					"fontsize" : 12.0,
					"outlettype" : [ "" ],
					"id" : "obj-7"
				}

			}
, 			{
				"box" : 				{
					"maxclass" : "message",
					"text" : "that girl you hate",
					"fontname" : "Arial",
					"numinlets" : 2,
					"patching_rect" : [ 150.00885, 387.834534, 113.0, 18.0 ],
					"numoutlets" : 1,
					"fontsize" : 12.0,
					"outlettype" : [ "" ],
					"id" : "obj-8"
				}

			}
, 			{
				"box" : 				{
					"maxclass" : "message",
					"text" : "big boss man",
					"fontname" : "Arial",
					"numinlets" : 2,
					"patching_rect" : [ 111.00885, 338.338135, 82.0, 18.0 ],
					"numoutlets" : 1,
					"fontsize" : 12.0,
					"outlettype" : [ "" ],
					"id" : "obj-9"
				}

			}
, 			{
				"box" : 				{
					"maxclass" : "comment",
					"text" : "all elements dissappear - the queue is reset",
					"fontname" : "Arial",
					"numinlets" : 1,
					"patching_rect" : [ 195.194687, 172.978424, 277.0, 20.0 ],
					"numoutlets" : 0,
					"fontsize" : 12.0,
					"frgb" : [ 0.0, 0.0, 0.0, 1.0 ],
					"id" : "obj-10"
				}

			}
, 			{
				"box" : 				{
					"maxclass" : "message",
					"text" : "reset",
					"fontname" : "Arial",
					"numinlets" : 2,
					"patching_rect" : [ 152.849564, 170.676254, 35.0, 18.0 ],
					"numoutlets" : 1,
					"fontsize" : 12.0,
					"outlettype" : [ "" ],
					"id" : "obj-11"
				}

			}
, 			{
				"box" : 				{
					"maxclass" : "comment",
					"text" : "all elements are output from the back",
					"fontname" : "Arial",
					"numinlets" : 1,
					"patching_rect" : [ 195.194687, 148.805756, 241.0, 20.0 ],
					"numoutlets" : 0,
					"fontsize" : 12.0,
					"frgb" : [ 0.0, 0.0, 0.0, 1.0 ],
					"id" : "obj-12"
				}

			}
, 			{
				"box" : 				{
					"maxclass" : "message",
					"text" : "flee",
					"fontname" : "Arial",
					"numinlets" : 2,
					"patching_rect" : [ 159.265488, 146.503601, 30.0, 18.0 ],
					"numoutlets" : 1,
					"fontsize" : 12.0,
					"outlettype" : [ "" ],
					"id" : "obj-13"
				}

			}
, 			{
				"box" : 				{
					"maxclass" : "number",
					"fontname" : "Arial",
					"numinlets" : 1,
					"patching_rect" : [ 4.0, 399.647491, 50.0, 20.0 ],
					"triscale" : 0.9,
					"numoutlets" : 2,
					"fontsize" : 12.0,
					"outlettype" : [ "int", "bang" ],
					"id" : "obj-14"
				}

			}
, 			{
				"box" : 				{
					"maxclass" : "message",
					"text" : "iterate $1",
					"fontname" : "Arial",
					"numinlets" : 2,
					"patching_rect" : [ 4.0, 426.21582, 71.0, 18.0 ],
					"numoutlets" : 1,
					"fontsize" : 12.0,
					"outlettype" : [ "" ],
					"id" : "obj-15"
				}

			}
, 			{
				"box" : 				{
					"maxclass" : "comment",
					"text" : "automatic reporting of status with every change",
					"fontname" : "Arial",
					"numinlets" : 1,
					"patching_rect" : [ 195.194687, 266.21582, 300.0, 20.0 ],
					"numoutlets" : 0,
					"fontsize" : 12.0,
					"frgb" : [ 0.0, 0.0, 0.0, 1.0 ],
					"id" : "obj-16"
				}

			}
, 			{
				"box" : 				{
					"maxclass" : "comment",
					"text" : "output a number of elementsfrom the back",
					"fontname" : "Arial",
					"numinlets" : 1,
					"patching_rect" : [ 195.194687, 99.309349, 294.0, 20.0 ],
					"numoutlets" : 0,
					"fontsize" : 12.0,
					"frgb" : [ 0.0, 0.0, 0.0, 1.0 ],
					"id" : "obj-17"
				}

			}
, 			{
				"box" : 				{
					"maxclass" : "comment",
					"text" : "output a number of elements from the front",
					"fontname" : "Arial",
					"numinlets" : 1,
					"patching_rect" : [ 195.194687, 76.287773, 295.0, 20.0 ],
					"numoutlets" : 0,
					"fontsize" : 12.0,
					"frgb" : [ 0.0, 0.0, 0.0, 1.0 ],
					"id" : "obj-18"
				}

			}
, 			{
				"box" : 				{
					"maxclass" : "comment",
					"text" : "all elements are output from the front",
					"fontname" : "Arial",
					"numinlets" : 1,
					"patching_rect" : [ 195.194687, 124.633095, 241.0, 20.0 ],
					"numoutlets" : 0,
					"fontsize" : 12.0,
					"frgb" : [ 0.0, 0.0, 0.0, 1.0 ],
					"id" : "obj-19"
				}

			}
, 			{
				"box" : 				{
					"maxclass" : "comment",
					"text" : "report the current elements out the second outlet",
					"fontname" : "Arial",
					"numinlets" : 1,
					"patching_rect" : [ 195.194687, 243.194244, 303.0, 20.0 ],
					"numoutlets" : 0,
					"fontsize" : 12.0,
					"frgb" : [ 0.0, 0.0, 0.0, 1.0 ],
					"id" : "obj-20"
				}

			}
, 			{
				"box" : 				{
					"maxclass" : "comment",
					"text" : "the third inlet adds elements to the back",
					"fontname" : "Arial",
					"numinlets" : 1,
					"patching_rect" : [ 212.345139, 412.402863, 248.0, 20.0 ],
					"numoutlets" : 0,
					"fontsize" : 12.0,
					"frgb" : [ 0.0, 0.0, 0.0, 1.0 ],
					"id" : "obj-21"
				}

			}
, 			{
				"box" : 				{
					"maxclass" : "message",
					"text" : "dump",
					"fontname" : "Arial",
					"numinlets" : 2,
					"patching_rect" : [ 151.566376, 122.330933, 41.0, 18.0 ],
					"numoutlets" : 1,
					"fontsize" : 12.0,
					"outlettype" : [ "" ],
					"id" : "obj-22"
				}

			}
, 			{
				"box" : 				{
					"maxclass" : "button",
					"numinlets" : 1,
					"patching_rect" : [ 48.911503, 452.690643, 20.0, 20.0 ],
					"numoutlets" : 1,
					"outlettype" : [ "bang" ],
					"id" : "obj-23"
				}

			}
, 			{
				"box" : 				{
					"maxclass" : "number",
					"fontname" : "Arial",
					"numinlets" : 1,
					"patching_rect" : [ 145.150436, 99.309349, 48.0, 20.0 ],
					"triscale" : 0.9,
					"numoutlets" : 2,
					"fontsize" : 12.0,
					"outlettype" : [ "int", "bang" ],
					"minimum" : 1,
					"id" : "obj-24"
				}

			}
, 			{
				"box" : 				{
					"maxclass" : "message",
					"text" : "pop $1",
					"fontname" : "Arial",
					"numinlets" : 2,
					"patching_rect" : [ 97.672569, 99.309349, 45.0, 18.0 ],
					"numoutlets" : 1,
					"fontsize" : 12.0,
					"outlettype" : [ "" ],
					"id" : "obj-25"
				}

			}
, 			{
				"box" : 				{
					"maxclass" : "number",
					"fontname" : "Arial",
					"numinlets" : 1,
					"patching_rect" : [ 145.150436, 75.136688, 48.0, 20.0 ],
					"triscale" : 0.9,
					"numoutlets" : 2,
					"fontsize" : 12.0,
					"outlettype" : [ "int", "bang" ],
					"minimum" : 1,
					"id" : "obj-26"
				}

			}
, 			{
				"box" : 				{
					"maxclass" : "message",
					"text" : "out $1",
					"fontname" : "Arial",
					"numinlets" : 2,
					"patching_rect" : [ 98.95575, 75.136688, 44.0, 18.0 ],
					"numoutlets" : 1,
					"fontsize" : 12.0,
					"outlettype" : [ "" ],
					"id" : "obj-27"
				}

			}
, 			{
				"box" : 				{
					"maxclass" : "message",
					"text" : "reverse",
					"fontname" : "Arial",
					"numinlets" : 2,
					"patching_rect" : [ 136.168137, 194.848923, 53.0, 18.0 ],
					"numoutlets" : 1,
					"fontsize" : 12.0,
					"outlettype" : [ "" ],
					"id" : "obj-28"
				}

			}
, 			{
				"box" : 				{
					"maxclass" : "message",
					"text" : "status",
					"fontname" : "Arial",
					"numinlets" : 2,
					"patching_rect" : [ 147.716812, 242.043167, 41.0, 18.0 ],
					"numoutlets" : 1,
					"fontsize" : 12.0,
					"outlettype" : [ "" ],
					"id" : "obj-29"
				}

			}
, 			{
				"box" : 				{
					"maxclass" : "newobj",
					"text" : "print elements",
					"fontname" : "Arial",
					"numinlets" : 1,
					"patching_rect" : [ 72.00885, 492.978424, 92.0, 20.0 ],
					"numoutlets" : 0,
					"fontsize" : 12.0,
					"id" : "obj-30"
				}

			}
, 			{
				"box" : 				{
					"maxclass" : "newobj",
					"text" : "print status",
					"fontname" : "Arial",
					"numinlets" : 1,
					"patching_rect" : [ 166.9646, 492.978424, 78.0, 20.0 ],
					"numoutlets" : 0,
					"fontsize" : 12.0,
					"id" : "obj-31"
				}

			}
, 			{
				"box" : 				{
					"maxclass" : "message",
					"text" : "plebe",
					"fontname" : "Arial",
					"numinlets" : 2,
					"patching_rect" : [ 163.132736, 411.251801, 40.0, 18.0 ],
					"numoutlets" : 1,
					"fontsize" : 12.0,
					"outlettype" : [ "" ],
					"id" : "obj-32"
				}

			}
, 			{
				"box" : 				{
					"maxclass" : "message",
					"text" : "VIP",
					"fontname" : "Arial",
					"numinlets" : 2,
					"patching_rect" : [ 123.070793, 362.755402, 28.0, 18.0 ],
					"numoutlets" : 1,
					"fontsize" : 12.0,
					"outlettype" : [ "" ],
					"id" : "obj-33"
				}

			}
, 			{
				"box" : 				{
					"maxclass" : "message",
					"text" : "get length",
					"fontname" : "Arial",
					"numinlets" : 2,
					"patching_rect" : [ 122.053101, 289.237396, 68.0, 18.0 ],
					"numoutlets" : 1,
					"fontsize" : 12.0,
					"outlettype" : [ "" ],
					"id" : "obj-34"
				}

			}
, 			{
				"box" : 				{
					"maxclass" : "toggle",
					"numinlets" : 1,
					"patching_rect" : [ 170.814163, 265.064758, 20.0, 20.0 ],
					"numoutlets" : 1,
					"outlettype" : [ "int" ],
					"id" : "obj-35"
				}

			}
, 			{
				"box" : 				{
					"maxclass" : "message",
					"text" : "autoStatus $1",
					"fontname" : "Arial",
					"numinlets" : 2,
					"patching_rect" : [ 82.274338, 265.064758, 85.0, 18.0 ],
					"numoutlets" : 1,
					"fontsize" : 12.0,
					"outlettype" : [ "" ],
					"id" : "obj-36"
				}

			}
, 			{
				"box" : 				{
					"maxclass" : "newobj",
					"text" : "print info",
					"fontname" : "Arial",
					"numinlets" : 1,
					"patching_rect" : [ 249.088501, 492.978424, 66.0, 20.0 ],
					"numoutlets" : 0,
					"fontsize" : 12.0,
					"id" : "obj-37"
				}

			}
, 			{
				"box" : 				{
					"maxclass" : "newobj",
					"text" : "mxj list.Queue",
					"fontname" : "Arial",
					"numinlets" : 3,
					"patching_rect" : [ 72.00885, 451.539581, 97.0, 20.0 ],
					"numoutlets" : 3,
					"fontsize" : 12.0,
					"outlettype" : [ "", "", "" ],
					"id" : "obj-38"
				}

			}
, 			{
				"box" : 				{
					"maxclass" : "comment",
					"text" : "maintains a queue of Atoms",
					"fontname" : "Arial",
					"numinlets" : 1,
					"patching_rect" : [ 19.0, 36.0, 175.0, 20.0 ],
					"numoutlets" : 0,
					"fontsize" : 12.0,
					"frgb" : [ 0.0, 0.0, 0.0, 1.0 ],
					"id" : "obj-39"
				}

			}
, 			{
				"box" : 				{
					"maxclass" : "comment",
					"text" : "the second inlet adds elements to the front",
					"fontname" : "Arial",
					"numinlets" : 1,
					"patching_rect" : [ 152.867264, 362.906464, 263.0, 20.0 ],
					"numoutlets" : 0,
					"fontsize" : 12.0,
					"frgb" : [ 0.0, 0.0, 0.0, 1.0 ],
					"id" : "obj-40"
				}

			}
, 			{
				"box" : 				{
					"maxclass" : "comment",
					"text" : "reverse the queue",
					"fontname" : "Arial",
					"numinlets" : 1,
					"patching_rect" : [ 195.194687, 197.151077, 155.0, 20.0 ],
					"numoutlets" : 0,
					"fontsize" : 12.0,
					"frgb" : [ 0.0, 0.0, 0.0, 1.0 ],
					"id" : "obj-41"
				}

			}
, 			{
				"box" : 				{
					"maxclass" : "comment",
					"text" : "list.Queue",
					"fontname" : "Arial",
					"numinlets" : 1,
					"patching_rect" : [ 19.0, 11.0, 100.0, 27.0 ],
					"numoutlets" : 0,
					"fontsize" : 18.0,
					"frgb" : [ 0.0, 0.0, 0.0, 1.0 ],
					"id" : "obj-42"
				}

			}
 ],
		"lines" : [ 			{
				"patchline" : 				{
					"source" : [ "obj-1", 0 ],
					"destination" : [ "obj-2", 0 ],
					"hidden" : 1,
					"midpoints" : [  ]
				}

			}
, 			{
				"patchline" : 				{
					"source" : [ "obj-2", 0 ],
					"destination" : [ "obj-3", 0 ],
					"hidden" : 1,
					"midpoints" : [  ]
				}

			}
, 			{
				"patchline" : 				{
					"source" : [ "obj-14", 0 ],
					"destination" : [ "obj-15", 0 ],
					"hidden" : 0,
					"midpoints" : [  ]
				}

			}
, 			{
				"patchline" : 				{
					"source" : [ "obj-7", 0 ],
					"destination" : [ "obj-38", 0 ],
					"hidden" : 0,
					"midpoints" : [ 152.084076, 237.438843, 81.50885, 237.438843 ]
				}

			}
, 			{
				"patchline" : 				{
					"source" : [ "obj-11", 0 ],
					"destination" : [ "obj-38", 0 ],
					"hidden" : 0,
					"midpoints" : [ 162.349564, 192.546768, 81.50885, 192.546768 ]
				}

			}
, 			{
				"patchline" : 				{
					"source" : [ "obj-22", 0 ],
					"destination" : [ "obj-38", 0 ],
					"hidden" : 0,
					"midpoints" : [ 161.066376, 144.201431, 81.50885, 144.201431 ]
				}

			}
, 			{
				"patchline" : 				{
					"source" : [ "obj-13", 0 ],
					"destination" : [ "obj-38", 0 ],
					"hidden" : 0,
					"midpoints" : [ 168.765488, 168.3741, 81.50885, 168.3741 ]
				}

			}
, 			{
				"patchline" : 				{
					"source" : [ "obj-15", 0 ],
					"destination" : [ "obj-38", 0 ],
					"hidden" : 0,
					"midpoints" : [ 13.5, 448.086334, 81.50885, 448.086334 ]
				}

			}
, 			{
				"patchline" : 				{
					"source" : [ "obj-25", 0 ],
					"destination" : [ "obj-38", 0 ],
					"hidden" : 0,
					"midpoints" : [ 107.172569, 120.028778, 81.50885, 120.028778 ]
				}

			}
, 			{
				"patchline" : 				{
					"source" : [ "obj-28", 0 ],
					"destination" : [ "obj-38", 0 ],
					"hidden" : 0,
					"midpoints" : [ 145.668137, 215.568344, 81.50885, 215.568344 ]
				}

			}
, 			{
				"patchline" : 				{
					"source" : [ "obj-29", 0 ],
					"destination" : [ "obj-38", 0 ],
					"hidden" : 0,
					"midpoints" : [ 157.216812, 261.611511, 81.50885, 261.611511 ]
				}

			}
, 			{
				"patchline" : 				{
					"source" : [ "obj-34", 0 ],
					"destination" : [ "obj-38", 0 ],
					"hidden" : 0,
					"midpoints" : [ 131.553101, 311.10791, 81.50885, 311.10791 ]
				}

			}
, 			{
				"patchline" : 				{
					"source" : [ "obj-36", 0 ],
					"destination" : [ "obj-38", 0 ],
					"hidden" : 0,
					"midpoints" : [ 91.774338, 286.935242, 81.50885, 286.935242 ]
				}

			}
, 			{
				"patchline" : 				{
					"source" : [ "obj-27", 0 ],
					"destination" : [ "obj-38", 0 ],
					"hidden" : 0,
					"midpoints" : [ 108.45575, 95.856117, 81.50885, 95.856117 ]
				}

			}
, 			{
				"patchline" : 				{
					"source" : [ "obj-23", 0 ],
					"destination" : [ "obj-38", 0 ],
					"hidden" : 0,
					"midpoints" : [  ]
				}

			}
, 			{
				"patchline" : 				{
					"source" : [ "obj-38", 0 ],
					"destination" : [ "obj-30", 0 ],
					"hidden" : 0,
					"midpoints" : [  ]
				}

			}
, 			{
				"patchline" : 				{
					"source" : [ "obj-35", 0 ],
					"destination" : [ "obj-36", 0 ],
					"hidden" : 1,
					"midpoints" : [  ]
				}

			}
, 			{
				"patchline" : 				{
					"source" : [ "obj-24", 0 ],
					"destination" : [ "obj-25", 0 ],
					"hidden" : 1,
					"midpoints" : [  ]
				}

			}
, 			{
				"patchline" : 				{
					"source" : [ "obj-26", 0 ],
					"destination" : [ "obj-27", 0 ],
					"hidden" : 1,
					"midpoints" : [  ]
				}

			}
, 			{
				"patchline" : 				{
					"source" : [ "obj-9", 0 ],
					"destination" : [ "obj-38", 1 ],
					"hidden" : 0,
					"midpoints" : [  ]
				}

			}
, 			{
				"patchline" : 				{
					"source" : [ "obj-33", 0 ],
					"destination" : [ "obj-38", 1 ],
					"hidden" : 0,
					"midpoints" : [  ]
				}

			}
, 			{
				"patchline" : 				{
					"source" : [ "obj-8", 0 ],
					"destination" : [ "obj-38", 2 ],
					"hidden" : 0,
					"midpoints" : [  ]
				}

			}
, 			{
				"patchline" : 				{
					"source" : [ "obj-32", 0 ],
					"destination" : [ "obj-38", 2 ],
					"hidden" : 0,
					"midpoints" : [  ]
				}

			}
, 			{
				"patchline" : 				{
					"source" : [ "obj-38", 1 ],
					"destination" : [ "obj-31", 0 ],
					"hidden" : 0,
					"midpoints" : [ 120.50885, 486.0, 176.4646, 486.0 ]
				}

			}
, 			{
				"patchline" : 				{
					"source" : [ "obj-38", 2 ],
					"destination" : [ "obj-37", 0 ],
					"hidden" : 0,
					"midpoints" : [ 159.50885, 477.0, 258.588501, 477.0 ]
				}

			}
 ]
	}

}
