{
	"patcher" : 	{
		"fileversion" : 1,
		"rect" : [ 10.0, 58.0, 752.0, 276.0 ],
		"bglocked" : 0,
		"defrect" : [ 10.0, 58.0, 752.0, 276.0 ],
		"openrect" : [ 0.0, 0.0, 0.0, 0.0 ],
		"openinpresentation" : 0,
		"default_fontsize" : 12.0,
		"default_fontface" : 0,
		"default_fontname" : "Arial",
		"gridonopen" : 0,
		"gridsize" : [ 15.0, 15.0 ],
		"gridsnaponopen" : 0,
		"toolbarvisible" : 1,
		"boxanimatetime" : 200,
		"imprint" : 0,
		"metadata" : [  ],
		"boxes" : [ 			{
				"box" : 				{
					"maxclass" : "message",
					"text" : "net.domain",
					"fontname" : "Arial",
					"numinlets" : 2,
					"patching_rect" : [ 617.0, 231.0, 71.0, 18.0 ],
					"numoutlets" : 1,
					"fontsize" : 12.0,
					"outlettype" : [ "" ],
					"id" : "obj-1"
				}

			}
, 			{
				"box" : 				{
					"maxclass" : "message",
					"text" : "net.ip",
					"fontname" : "Arial",
					"numinlets" : 2,
					"patching_rect" : [ 617.0, 211.0, 42.0, 18.0 ],
					"numoutlets" : 1,
					"fontsize" : 12.0,
					"outlettype" : [ "" ],
					"id" : "obj-2"
				}

			}
, 			{
				"box" : 				{
					"maxclass" : "message",
					"text" : "net.local",
					"fontname" : "Arial",
					"numinlets" : 2,
					"patching_rect" : [ 617.0, 191.0, 57.0, 18.0 ],
					"numoutlets" : 1,
					"fontsize" : 12.0,
					"outlettype" : [ "" ],
					"id" : "obj-3"
				}

			}
, 			{
				"box" : 				{
					"maxclass" : "message",
					"text" : "net.maxhole",
					"fontname" : "Arial",
					"numinlets" : 2,
					"patching_rect" : [ 617.0, 171.0, 81.0, 18.0 ],
					"numoutlets" : 1,
					"fontsize" : 12.0,
					"outlettype" : [ "" ],
					"id" : "obj-4"
				}

			}
, 			{
				"box" : 				{
					"maxclass" : "message",
					"text" : "net.multi.send",
					"fontname" : "Arial",
					"numinlets" : 2,
					"patching_rect" : [ 617.0, 151.0, 92.0, 18.0 ],
					"numoutlets" : 1,
					"fontsize" : 12.0,
					"outlettype" : [ "" ],
					"id" : "obj-5"
				}

			}
, 			{
				"box" : 				{
					"maxclass" : "message",
					"text" : "net.multi.recv",
					"fontname" : "Arial",
					"numinlets" : 2,
					"patching_rect" : [ 617.0, 131.0, 95.0, 18.0 ],
					"numoutlets" : 1,
					"fontsize" : 12.0,
					"outlettype" : [ "" ],
					"id" : "obj-6"
				}

			}
, 			{
				"box" : 				{
					"maxclass" : "message",
					"text" : "net.tcp.recv",
					"fontname" : "Arial",
					"numinlets" : 2,
					"patching_rect" : [ 617.0, 70.0, 83.0, 18.0 ],
					"numoutlets" : 1,
					"fontsize" : 12.0,
					"outlettype" : [ "" ],
					"id" : "obj-7"
				}

			}
, 			{
				"box" : 				{
					"maxclass" : "message",
					"text" : "net.udp.recv",
					"fontname" : "Arial",
					"numinlets" : 2,
					"patching_rect" : [ 617.0, 111.0, 85.0, 18.0 ],
					"numoutlets" : 1,
					"fontsize" : 12.0,
					"outlettype" : [ "" ],
					"id" : "obj-8"
				}

			}
, 			{
				"box" : 				{
					"maxclass" : "message",
					"text" : "net.udp.send",
					"fontname" : "Arial",
					"numinlets" : 2,
					"patching_rect" : [ 617.0, 91.0, 80.0, 18.0 ],
					"numoutlets" : 1,
					"fontsize" : 12.0,
					"outlettype" : [ "" ],
					"id" : "obj-9"
				}

			}
, 			{
				"box" : 				{
					"maxclass" : "comment",
					"text" : "see also:",
					"fontname" : "Arial",
					"numinlets" : 1,
					"patching_rect" : [ 617.0, 51.0, 61.0, 20.0 ],
					"numoutlets" : 0,
					"fontsize" : 12.0,
					"frgb" : [ 0.0, 0.0, 0.0, 1.0 ],
					"id" : "obj-10"
				}

			}
, 			{
				"box" : 				{
					"maxclass" : "newobj",
					"text" : "prepend help",
					"fontname" : "Arial",
					"numinlets" : 1,
					"patching_rect" : [ 544.0, 87.0, 83.0, 20.0 ],
					"numoutlets" : 1,
					"hidden" : 1,
					"fontsize" : 12.0,
					"outlettype" : [ "" ],
					"id" : "obj-11"
				}

			}
, 			{
				"box" : 				{
					"maxclass" : "newobj",
					"text" : "pcontrol",
					"fontname" : "Arial",
					"numinlets" : 1,
					"patching_rect" : [ 544.0, 108.0, 56.0, 20.0 ],
					"numoutlets" : 1,
					"hidden" : 1,
					"fontsize" : 12.0,
					"outlettype" : [ "" ],
					"id" : "obj-12"
				}

			}
, 			{
				"box" : 				{
					"maxclass" : "comment",
					"text" : "number of active packets (sent but no response received)",
					"fontname" : "Arial",
					"numinlets" : 1,
					"patching_rect" : [ 269.0, 169.0, 350.0, 20.0 ],
					"numoutlets" : 0,
					"fontsize" : 12.0,
					"frgb" : [ 0.0, 0.0, 0.0, 1.0 ],
					"id" : "obj-13"
				}

			}
, 			{
				"box" : 				{
					"maxclass" : "comment",
					"text" : "unsuccessfully transmitted data",
					"fontname" : "Arial",
					"numinlets" : 1,
					"patching_rect" : [ 204.0, 197.0, 201.0, 20.0 ],
					"numoutlets" : 0,
					"fontsize" : 12.0,
					"frgb" : [ 0.0, 0.0, 0.0, 1.0 ],
					"id" : "obj-14"
				}

			}
, 			{
				"box" : 				{
					"maxclass" : "comment",
					"text" : "successfully transmitted data",
					"fontname" : "Arial",
					"numinlets" : 1,
					"patching_rect" : [ 104.0, 225.0, 195.0, 20.0 ],
					"numoutlets" : 0,
					"fontsize" : 12.0,
					"frgb" : [ 0.0, 0.0, 0.0, 1.0 ],
					"id" : "obj-15"
				}

			}
, 			{
				"box" : 				{
					"maxclass" : "number",
					"fontname" : "Arial",
					"numinlets" : 1,
					"patching_rect" : [ 232.0, 169.0, 37.0, 20.0 ],
					"triscale" : 0.9,
					"numoutlets" : 2,
					"fontsize" : 12.0,
					"outlettype" : [ "int", "bang" ],
					"id" : "obj-16"
				}

			}
, 			{
				"box" : 				{
					"maxclass" : "message",
					"text" : "address 127.0.0.1",
					"fontname" : "Arial",
					"numinlets" : 2,
					"patching_rect" : [ 301.0, 49.0, 120.0, 18.0 ],
					"numoutlets" : 1,
					"fontsize" : 12.0,
					"outlettype" : [ "" ],
					"id" : "obj-17"
				}

			}
, 			{
				"box" : 				{
					"maxclass" : "message",
					"text" : "address 192.168.0.2",
					"fontname" : "Arial",
					"numinlets" : 2,
					"patching_rect" : [ 318.0, 75.0, 135.0, 18.0 ],
					"numoutlets" : 1,
					"fontsize" : 12.0,
					"outlettype" : [ "" ],
					"id" : "obj-18"
				}

			}
, 			{
				"box" : 				{
					"maxclass" : "message",
					"text" : "port 7778",
					"fontname" : "Arial",
					"numinlets" : 2,
					"patching_rect" : [ 231.0, 75.0, 72.0, 18.0 ],
					"numoutlets" : 1,
					"fontsize" : 12.0,
					"outlettype" : [ "" ],
					"id" : "obj-19"
				}

			}
, 			{
				"box" : 				{
					"maxclass" : "message",
					"text" : "port 7474",
					"fontname" : "Arial",
					"numinlets" : 2,
					"patching_rect" : [ 213.0, 49.0, 77.0, 18.0 ],
					"numoutlets" : 1,
					"fontsize" : 12.0,
					"outlettype" : [ "" ],
					"id" : "obj-20"
				}

			}
, 			{
				"box" : 				{
					"maxclass" : "newobj",
					"text" : "print info",
					"fontname" : "Arial",
					"numinlets" : 1,
					"patching_rect" : [ 342.0, 141.0, 70.0, 20.0 ],
					"numoutlets" : 0,
					"fontsize" : 12.0,
					"id" : "obj-21"
				}

			}
, 			{
				"box" : 				{
					"maxclass" : "newobj",
					"text" : "print failure",
					"fontname" : "Arial",
					"numinlets" : 1,
					"patching_rect" : [ 123.0, 197.0, 81.0, 20.0 ],
					"numoutlets" : 0,
					"fontsize" : 12.0,
					"id" : "obj-22"
				}

			}
, 			{
				"box" : 				{
					"maxclass" : "newobj",
					"text" : "print success",
					"fontname" : "Arial",
					"numinlets" : 1,
					"patching_rect" : [ 14.0, 225.0, 90.0, 20.0 ],
					"numoutlets" : 0,
					"fontsize" : 12.0,
					"id" : "obj-23"
				}

			}
, 			{
				"box" : 				{
					"maxclass" : "message",
					"text" : "life is so much easier now",
					"fontname" : "Arial",
					"numinlets" : 2,
					"patching_rect" : [ 68.0, 74.0, 148.0, 18.0 ],
					"numoutlets" : 1,
					"fontsize" : 12.0,
					"outlettype" : [ "" ],
					"id" : "obj-24"
				}

			}
, 			{
				"box" : 				{
					"maxclass" : "comment",
					"text" : "Send TCP packets",
					"fontname" : "Arial",
					"numinlets" : 1,
					"patching_rect" : [ 10.0, 32.0, 120.0, 20.0 ],
					"numoutlets" : 0,
					"fontsize" : 12.0,
					"frgb" : [ 0.0, 0.0, 0.0, 1.0 ],
					"id" : "obj-25"
				}

			}
, 			{
				"box" : 				{
					"maxclass" : "number",
					"fontname" : "Arial",
					"numinlets" : 1,
					"patching_rect" : [ 14.0, 76.0, 37.0, 20.0 ],
					"triscale" : 0.9,
					"numoutlets" : 2,
					"fontsize" : 12.0,
					"outlettype" : [ "int", "bang" ],
					"id" : "obj-26"
				}

			}
, 			{
				"box" : 				{
					"maxclass" : "newobj",
					"text" : "mxj net.tcp.send @address 127.0.0.1 @port 7778",
					"fontname" : "Arial",
					"numinlets" : 1,
					"patching_rect" : [ 14.0, 114.0, 346.0, 20.0 ],
					"numoutlets" : 4,
					"fontsize" : 12.0,
					"outlettype" : [ "", "", "", "" ],
					"id" : "obj-27"
				}

			}
, 			{
				"box" : 				{
					"maxclass" : "comment",
					"text" : "net.tcp.send",
					"fontname" : "Arial",
					"numinlets" : 1,
					"patching_rect" : [ 10.0, 8.0, 121.0, 27.0 ],
					"numoutlets" : 0,
					"fontsize" : 18.0,
					"frgb" : [ 0.0, 0.0, 0.0, 1.0 ],
					"id" : "obj-28"
				}

			}
 ],
		"lines" : [ 			{
				"patchline" : 				{
					"source" : [ "obj-11", 0 ],
					"destination" : [ "obj-12", 0 ],
					"hidden" : 1,
					"midpoints" : [  ]
				}

			}
, 			{
				"patchline" : 				{
					"source" : [ "obj-1", 0 ],
					"destination" : [ "obj-11", 0 ],
					"hidden" : 1,
					"midpoints" : [  ]
				}

			}
, 			{
				"patchline" : 				{
					"source" : [ "obj-2", 0 ],
					"destination" : [ "obj-11", 0 ],
					"hidden" : 1,
					"midpoints" : [  ]
				}

			}
, 			{
				"patchline" : 				{
					"source" : [ "obj-3", 0 ],
					"destination" : [ "obj-11", 0 ],
					"hidden" : 1,
					"midpoints" : [  ]
				}

			}
, 			{
				"patchline" : 				{
					"source" : [ "obj-4", 0 ],
					"destination" : [ "obj-11", 0 ],
					"hidden" : 1,
					"midpoints" : [  ]
				}

			}
, 			{
				"patchline" : 				{
					"source" : [ "obj-5", 0 ],
					"destination" : [ "obj-11", 0 ],
					"hidden" : 1,
					"midpoints" : [  ]
				}

			}
, 			{
				"patchline" : 				{
					"source" : [ "obj-6", 0 ],
					"destination" : [ "obj-11", 0 ],
					"hidden" : 1,
					"midpoints" : [  ]
				}

			}
, 			{
				"patchline" : 				{
					"source" : [ "obj-7", 0 ],
					"destination" : [ "obj-11", 0 ],
					"hidden" : 1,
					"midpoints" : [  ]
				}

			}
, 			{
				"patchline" : 				{
					"source" : [ "obj-8", 0 ],
					"destination" : [ "obj-11", 0 ],
					"hidden" : 1,
					"midpoints" : [  ]
				}

			}
, 			{
				"patchline" : 				{
					"source" : [ "obj-9", 0 ],
					"destination" : [ "obj-11", 0 ],
					"hidden" : 1,
					"midpoints" : [  ]
				}

			}
, 			{
				"patchline" : 				{
					"source" : [ "obj-27", 3 ],
					"destination" : [ "obj-21", 0 ],
					"hidden" : 0,
					"midpoints" : [  ]
				}

			}
, 			{
				"patchline" : 				{
					"source" : [ "obj-27", 2 ],
					"destination" : [ "obj-16", 0 ],
					"hidden" : 0,
					"midpoints" : [  ]
				}

			}
, 			{
				"patchline" : 				{
					"source" : [ "obj-27", 1 ],
					"destination" : [ "obj-22", 0 ],
					"hidden" : 0,
					"midpoints" : [  ]
				}

			}
, 			{
				"patchline" : 				{
					"source" : [ "obj-27", 0 ],
					"destination" : [ "obj-23", 0 ],
					"hidden" : 0,
					"midpoints" : [  ]
				}

			}
, 			{
				"patchline" : 				{
					"source" : [ "obj-18", 0 ],
					"destination" : [ "obj-27", 0 ],
					"hidden" : 0,
					"midpoints" : [ 327.5, 101.0, 23.5, 101.0 ]
				}

			}
, 			{
				"patchline" : 				{
					"source" : [ "obj-19", 0 ],
					"destination" : [ "obj-27", 0 ],
					"hidden" : 0,
					"midpoints" : [ 240.5, 101.0, 23.5, 101.0 ]
				}

			}
, 			{
				"patchline" : 				{
					"source" : [ "obj-20", 0 ],
					"destination" : [ "obj-27", 0 ],
					"hidden" : 0,
					"midpoints" : [ 222.5, 101.0, 23.5, 101.0 ]
				}

			}
, 			{
				"patchline" : 				{
					"source" : [ "obj-26", 0 ],
					"destination" : [ "obj-27", 0 ],
					"hidden" : 0,
					"midpoints" : [  ]
				}

			}
, 			{
				"patchline" : 				{
					"source" : [ "obj-24", 0 ],
					"destination" : [ "obj-27", 0 ],
					"hidden" : 0,
					"midpoints" : [ 77.5, 101.0, 23.5, 101.0 ]
				}

			}
, 			{
				"patchline" : 				{
					"source" : [ "obj-17", 0 ],
					"destination" : [ "obj-27", 0 ],
					"hidden" : 0,
					"midpoints" : [ 310.5, 101.0, 23.5, 101.0 ]
				}

			}
 ]
	}

}
